<svg data-v-423bf9ae="" xmlns="http://www.w3.org/2000/svg" viewBox="0 0 587 90" class="iconLeftSlogan"><!----><!----><!----><g data-v-423bf9ae="" id="95d3bfd2-a11d-49c6-b02a-1a6bdf60e9f9" fill="white" transform="matrix(4.567948341369629,0,0,4.567948341369629,103.74471282958984,-13.49828815460205)"><path d="M0.90 6.22L0.90 6.22L0.90 6.22Q0.71 6.17 0.51 6.05L0.51 6.05L0.51 6.05Q0.31 5.93 0.16 5.78L0.16 5.78L0.16 5.78Q0 5.62-0.08 5.43L-0.08 5.43L-0.08 5.43Q-0.16 5.24-0.12 5.02L-0.12 5.02L-0.12 5.02Q-0.04 4.57 0.40 4.17L0.40 4.17L0.40 4.17Q0.83 3.77 1.57 3.54L1.57 3.54L1.57 3.50L1.57 3.50Q1.59 3.35 1.77 3.19L1.77 3.19L1.77 3.19Q1.96 3.04 2.23 2.98L2.23 2.98L2.23 2.98Q2.49 2.93 2.60 2.98L2.60 2.98L2.60 2.98Q2.72 3.04 2.72 3.13L2.72 3.13L2.72 3.13Q2.72 3.16 2.71 3.19L2.71 3.19L2.71 3.19Q2.71 3.23 2.71 3.25L2.71 3.25L2.71 3.32L2.71 3.32Q3.38 3.27 4.20 3.36L4.20 3.36L4.20 3.36Q5.18 3.49 5.80 3.83L5.80 3.83L5.80 3.83Q6.41 4.17 6.73 4.61L6.73 4.61L6.73 4.61Q7.04 5.06 7.12 5.54L7.12 5.54L7.12 5.54Q7.19 6.02 7.11 6.41L7.11 6.41L7.11 6.41Q7.03 6.88 6.81 7.25L6.81 7.25L6.81 7.25Q6.59 7.63 6.29 7.92L6.29 7.92L6.29 7.92Q5.99 8.22 5.62 8.44L5.62 8.44L5.62 8.44Q5.25 8.65 4.84 8.80L4.84 8.80L4.84 8.80Q5.28 8.90 5.58 9.11L5.58 9.11L5.58 9.11Q5.89 9.32 6.08 9.61L6.08 9.61L6.08 9.61Q6.28 9.90 6.36 10.25L6.36 10.25L6.36 10.25Q6.44 10.61 6.41 10.98L6.41 10.98L6.41 10.98Q6.38 11.55 6.12 12.05L6.12 12.05L6.12 12.05Q5.85 12.55 5.40 12.92L5.40 12.92L5.40 12.92Q4.95 13.29 4.33 13.49L4.33 13.49L4.33 13.49Q3.71 13.70 2.95 13.67L2.95 13.67L2.79 13.67L2.79 13.67Q2.58 13.85 2.34 13.94L2.34 13.94L2.34 13.94Q2.11 14.03 1.89 14.07L1.89 14.07L1.89 14.07Q1.64 14.12 1.39 14.11L1.39 14.11L1.39 14.11Q1.39 14.01 1.40 13.91L1.40 13.91L1.40 13.91Q1.41 13.81 1.41 13.71L1.41 13.71L1.41 13.71Q1.41 13.60 1.42 13.49L1.42 13.49L1.42 13.49Q1.26 13.47 1.11 13.41L1.11 13.41L1.11 13.41Q0.97 13.37 0.83 13.32L0.83 13.32L0.83 13.32Q0.68 13.28 0.57 13.22L0.57 13.22L0.57 13.22Q0.52 13.14 0.49 13.02L0.49 13.02L0.49 13.02Q0.46 12.91 0.46 12.78L0.46 12.78L0.46 12.78Q0.45 12.65 0.51 12.48L0.51 12.48L0.51 12.48Q0.93 12.65 1.48 12.73L1.48 12.73L1.48 12.73Q1.50 12.03 1.52 11.07L1.52 11.07L1.52 11.07Q1.54 10.12 1.54 9.06L1.54 9.06L1.54 9.06Q1.54 7.88 1.55 6.73L1.55 6.73L1.55 6.73Q1.56 5.58 1.56 4.76L1.56 4.76L1.56 4.76Q1.16 4.96 0.94 5.32L0.94 5.32L0.94 5.32Q0.72 5.67 0.90 6.22ZM5.11 11.05L5.11 11.05L5.11 11.05Q5.17 10.45 4.94 10.08L4.94 10.08L4.94 10.08Q4.70 9.72 4.33 9.54L4.33 9.54L4.33 9.54Q3.95 9.35 3.51 9.31L3.51 9.31L3.51 9.31Q3.06 9.27 2.71 9.30L2.71 9.30L2.71 9.30Q2.73 10.43 2.75 11.35L2.75 11.35L2.75 11.35Q2.76 12.28 2.78 12.87L2.78 12.87L2.78 12.87Q3.20 12.88 3.60 12.77L3.60 12.77L3.60 12.77Q3.99 12.66 4.31 12.43L4.31 12.43L4.31 12.43Q4.63 12.20 4.85 11.85L4.85 11.85L4.85 11.85Q5.07 11.50 5.11 11.05ZM2.68 4.44L2.68 4.44L2.68 4.44Q2.65 5.14 2.65 6.10L2.65 6.10L2.65 6.10Q2.65 7.05 2.68 8.23L2.68 8.23L2.68 8.23Q2.68 8.34 2.68 8.44L2.68 8.44L2.68 8.44Q2.68 8.54 2.69 8.65L2.69 8.65L2.69 8.65Q3.19 8.61 3.72 8.42L3.72 8.42L3.72 8.42Q4.25 8.22 4.70 7.89L4.70 7.89L4.70 7.89Q5.14 7.56 5.43 7.12L5.43 7.12L5.43 7.12Q5.71 6.67 5.71 6.14L5.71 6.14L5.71 6.14Q5.71 5.73 5.50 5.41L5.50 5.41L5.50 5.41Q5.28 5.09 4.92 4.87L4.92 4.87L4.92 4.87Q4.55 4.65 4.08 4.54L4.08 4.54L4.08 4.54Q3.61 4.43 3.10 4.43L3.10 4.43L3.10 4.43Q2.99 4.43 2.89 4.43L2.89 4.43L2.89 4.43Q2.79 4.43 2.68 4.44ZM9.28 12.71L9.28 12.71L9.28 12.71Q8.33 12.71 7.81 12.07L7.81 12.07L7.81 12.07Q7.29 11.43 7.29 10.39L7.29 10.39L7.29 10.39Q7.29 9.67 7.50 9.03L7.50 9.03L7.50 9.03Q7.71 8.39 8.07 7.93L8.07 7.93L8.07 7.93Q8.42 7.46 8.89 7.20L8.89 7.20L8.89 7.20Q9.37 6.93 9.88 6.93L9.88 6.93L9.88 6.93Q10.39 6.93 10.75 7.29L10.75 7.29L10.75 7.29Q11.10 7.66 11.10 8.33L11.10 8.33L11.10 8.33Q11.10 8.76 10.91 9.19L10.91 9.19L10.91 9.19Q10.72 9.63 10.41 9.96L10.41 9.96L10.41 9.96Q10.10 10.29 9.73 10.50L9.73 10.50L9.73 10.50Q9.37 10.71 9.02 10.71L9.02 10.71L9.02 10.71Q8.80 10.71 8.65 10.65L8.65 10.65L8.65 10.65Q8.50 10.60 8.38 10.49L8.38 10.49L8.38 10.49Q8.42 11.27 8.72 11.57L8.72 11.57L8.72 11.57Q9.02 11.88 9.50 11.88L9.50 11.88L9.50 11.88Q9.83 11.88 10.08 11.74L10.08 11.74L10.08 11.74Q10.34 11.61 10.51 11.43L10.51 11.43L10.51 11.43Q10.69 11.25 10.80 11.07L10.80 11.07L10.80 11.07Q10.91 10.88 10.95 10.79L10.95 10.79L10.95 10.79Q10.99 10.71 11.09 10.71L11.09 10.71L11.09 10.71Q11.20 10.71 11.20 10.87L11.20 10.87L11.20 10.87Q11.20 11.02 11.09 11.33L11.09 11.33L11.09 11.33Q10.99 11.63 10.76 11.94L10.76 11.94L10.76 11.94Q10.53 12.25 10.17 12.48L10.17 12.48L10.17 12.48Q9.80 12.71 9.28 12.71ZM9.91 7.52L9.91 7.52L9.91 7.52Q9.83 7.52 9.60 7.69L9.60 7.69L9.60 7.69Q9.38 7.86 9.13 8.19L9.13 8.19L9.13 8.19Q8.87 8.52 8.66 8.98L8.66 8.98L8.66 8.98Q8.45 9.43 8.39 10.01L8.39 10.01L8.39 10.01Q9.21 9.82 9.69 9.41L9.69 9.41L9.69 9.41Q10.17 9.00 10.17 8.20L10.17 8.20L10.17 8.20Q10.17 7.81 10.08 7.66L10.08 7.66L10.08 7.66Q9.98 7.52 9.91 7.52ZM15.94 11.87L15.94 11.87L15.94 11.87Q15.97 11.96 16.02 12.04L16.02 12.04L16.02 12.04Q16.06 12.11 16.14 12.17L16.14 12.17L16.14 12.17Q16.21 12.24 16.32 12.25L16.32 12.25L16.32 12.25Q16.23 12.44 16.13 12.51L16.13 12.51L16.13 12.51Q16.08 12.55 16.04 12.56L16.04 12.56L16.04 12.56Q15.91 12.61 15.67 12.61L15.67 12.61L15.67 12.61Q15.42 12.61 15.19 12.46L15.19 12.46L15.19 12.46Q15.11 12.39 15.04 12.25L15.04 12.25L15.04 12.25Q14.97 12.14 14.92 11.94L14.92 11.94L14.92 11.94Q14.88 11.74 14.85 11.43L14.85 11.43L14.85 11.43Q14.66 11.84 14.42 12.08L14.42 12.08L14.42 12.08Q14.18 12.32 13.95 12.43L13.95 12.43L13.95 12.43Q13.69 12.58 13.41 12.61L13.41 12.61L13.41 12.61Q13.07 12.63 12.76 12.49L12.76 12.49L12.76 12.49Q12.46 12.35 12.24 12.05L12.24 12.05L12.24 12.05Q12.03 11.76 11.92 11.33L11.92 11.33L11.92 11.33Q11.81 10.91 11.85 10.38L11.85 10.38L11.85 10.38Q11.89 9.82 12.07 9.38L12.07 9.38L12.07 9.38Q12.25 8.94 12.50 8.60L12.50 8.60L12.50 8.60Q12.74 8.26 13.02 8.02L13.02 8.02L13.02 8.02Q13.29 7.78 13.54 7.62L13.54 7.62L13.54 7.62Q13.79 7.46 13.98 7.39L13.98 7.39L13.98 7.39Q14.16 7.31 14.22 7.30L14.22 7.30L14.22 7.30Q14.37 7.26 14.48 7.27L14.48 7.27L14.48 7.27Q14.59 7.29 14.67 7.40L14.67 7.40L14.67 7.40Q14.70 7.44 14.74 7.49L14.74 7.49L14.74 7.49Q14.77 7.55 14.81 7.64L14.81 7.64L14.81 7.64Q14.85 7.72 14.88 7.83L14.88 7.83L14.88 7.83Q14.55 7.98 14.26 8.17L14.26 8.17L14.26 8.17Q13.97 8.35 13.73 8.61L13.73 8.61L13.73 8.61Q13.49 8.87 13.32 9.24L13.32 9.24L13.32 9.24Q13.14 9.61 13.04 10.14L13.04 10.14L13.04 10.14Q12.91 10.81 13.12 11.22L13.12 11.22L13.12 11.22Q13.33 11.63 13.70 11.57L13.70 11.57L13.70 11.57Q13.92 11.50 14.12 11.31L14.12 11.31L14.12 11.31Q14.30 11.14 14.50 10.81L14.50 10.81L14.50 10.81Q14.70 10.49 14.88 9.91L14.88 9.91L14.88 9.91Q14.94 9.09 14.99 8.62L14.99 8.62L14.99 8.62Q15.04 8.15 15.08 7.90L15.08 7.90L15.08 7.90Q15.13 7.62 15.16 7.52L15.16 7.52L15.16 7.52Q15.20 7.45 15.33 7.39L15.33 7.39L15.33 7.39Q15.45 7.33 15.60 7.29L15.60 7.29L15.60 7.29Q15.75 7.25 15.87 7.24L15.87 7.24L15.87 7.24Q16.00 7.23 16.04 7.25L16.04 7.25L16.04 7.25Q16.06 7.26 16.06 7.58L16.06 7.58L16.06 7.58Q16.06 7.90 16.04 8.39L16.04 8.39L16.04 8.39Q16.02 8.87 16.00 9.44L16.00 9.44L16.00 9.44Q15.97 10.01 15.95 10.51L15.95 10.51L15.95 10.51Q15.93 11.02 15.92 11.40L15.92 11.40L15.92 11.40Q15.91 11.77 15.94 11.87ZM20.22 7.48L20.22 7.48L20.22 7.48Q20.22 7.33 20.41 7.25L20.41 7.25L20.41 7.25Q20.59 7.18 20.80 7.18L20.80 7.18L20.80 7.18Q21.01 7.18 21.19 7.25L21.19 7.25L21.19 7.25Q21.37 7.33 21.36 7.45L21.36 7.45L21.36 7.45Q21.34 7.55 21.33 7.83L21.33 7.83L21.33 7.83Q21.31 8.11 21.29 8.49L21.29 8.49L21.29 8.49Q21.27 8.87 21.25 9.31L21.25 9.31L21.25 9.31Q21.22 9.75 21.20 10.17L21.20 10.17L21.20 10.17Q21.18 10.58 21.17 10.94L21.17 10.94L21.17 10.94Q21.16 11.29 21.16 11.48L21.16 11.48L21.16 11.48Q21.16 11.73 21.19 11.94L21.19 11.94L21.19 11.94Q21.22 12.11 21.26 12.28L21.26 12.28L21.26 12.28Q21.30 12.46 21.38 12.52L21.38 12.52L21.38 12.52Q21.27 12.56 21.16 12.58L21.16 12.58L21.16 12.58Q21.04 12.59 20.95 12.61L20.95 12.61L20.95 12.61Q20.84 12.62 20.73 12.62L20.73 12.62L20.73 12.62Q20.49 12.62 20.34 12.52L20.34 12.52L20.34 12.52Q20.18 12.43 20.18 12.13L20.18 12.13L20.18 12.13Q20.18 11.98 20.20 11.69L20.20 11.69L20.20 11.69Q20.22 11.40 20.25 11.07L20.25 11.07L20.25 11.07Q20.15 11.36 20.02 11.66L20.02 11.66L20.02 11.66Q19.88 11.96 19.68 12.20L19.68 12.20L19.68 12.20Q19.48 12.43 19.24 12.58L19.24 12.58L19.24 12.58Q18.99 12.73 18.68 12.73L18.68 12.73L18.68 12.73Q18.32 12.73 18.03 12.58L18.03 12.58L18.03 12.58Q17.73 12.43 17.51 12.15L17.51 12.15L17.51 12.15Q17.29 11.87 17.19 11.46L17.19 11.46L17.19 11.46Q17.08 11.05 17.10 10.51L17.10 10.51L17.10 10.51Q17.10 10.10 17.12 9.64L17.12 9.64L17.12 9.64Q17.13 9.24 17.16 8.72L17.16 8.72L17.16 8.72Q17.19 8.20 17.25 7.64L17.25 7.64L17.25 7.64Q17.27 7.59 17.45 7.51L17.45 7.51L17.45 7.51Q17.62 7.42 17.84 7.37L17.84 7.37L17.84 7.37Q18.06 7.31 18.27 7.33L18.27 7.33L18.27 7.33Q18.47 7.34 18.57 7.49L18.57 7.49L18.57 7.49Q18.50 7.74 18.43 8.07L18.43 8.07L18.43 8.07Q18.36 8.41 18.31 8.76L18.31 8.76L18.31 8.76Q18.25 9.12 18.22 9.46L18.22 9.46L18.22 9.46Q18.20 9.80 18.20 10.09L18.20 10.09L18.20 10.09Q18.20 10.35 18.22 10.66L18.22 10.66L18.22 10.66Q18.25 10.96 18.33 11.23L18.33 11.23L18.33 11.23Q18.40 11.50 18.55 11.68L18.55 11.68L18.55 11.68Q18.69 11.85 18.92 11.85L18.92 11.85L18.92 11.85Q19.18 11.85 19.38 11.63L19.38 11.63L19.38 11.63Q19.58 11.40 19.71 11.05L19.71 11.05L19.71 11.05Q19.85 10.69 19.95 10.23L19.95 10.23L19.95 10.23Q20.04 9.78 20.10 9.32L20.10 9.32L20.10 9.32Q20.17 8.87 20.19 8.46L20.19 8.46L20.19 8.46Q20.21 8.04 20.22 7.75L20.22 7.75L20.22 7.48ZM27.45 6.48L27.45 6.48L27.45 6.48Q27.30 6.45 27.05 6.43L27.05 6.43L27.05 6.43Q26.80 6.40 26.54 6.38L26.54 6.38L26.54 6.38Q26.24 6.37 25.89 6.37L25.89 6.37L25.89 6.37Q25.55 6.34 25.04 6.36L25.04 6.36L25.04 6.36Q24.53 6.38 23.97 6.38L23.97 6.38L23.97 6.38Q23.95 6.74 23.92 7.11L23.92 7.11L23.92 7.11Q23.88 7.48 23.86 7.83L23.86 7.83L23.86 7.83Q23.79 8.49 23.74 9.17L23.74 9.17L23.74 9.17Q23.69 9.86 23.69 10.47L23.69 10.47L23.69 10.47Q23.69 11.09 23.77 11.59L23.77 11.59L23.77 11.59Q23.84 12.09 24.05 12.37L24.05 12.37L24.05 12.37Q23.88 12.50 23.69 12.56L23.69 12.56L23.69 12.56Q23.50 12.62 23.35 12.65L23.35 12.65L23.35 12.65Q23.17 12.69 23.00 12.69L23.00 12.69L23.00 12.69Q22.83 12.69 22.72 12.58L22.72 12.58L22.72 12.58Q22.61 12.47 22.60 12.20L22.60 12.20L22.60 12.20Q22.57 11.73 22.59 11.26L22.59 11.26L22.59 11.26Q22.61 10.79 22.65 10.27L22.65 10.27L22.65 10.27Q22.68 9.75 22.72 9.15L22.72 9.15L22.72 9.15Q22.76 8.56 22.80 7.85L22.80 7.85L22.80 7.85Q22.85 7.11 22.85 6.41L22.85 6.41L22.85 6.41Q22.33 6.43 21.97 6.43L21.97 6.43L21.97 6.43Q21.62 6.43 21.57 6.41L21.57 6.41L21.57 6.41Q21.53 6.38 21.48 6.29L21.48 6.29L21.48 6.29Q21.42 6.21 21.33 6.04L21.33 6.04L21.33 6.04Q21.25 5.88 21.11 5.58L21.11 5.58L21.11 5.58Q21.37 5.58 21.68 5.58L21.68 5.58L21.68 5.58Q21.98 5.58 22.24 5.56L22.24 5.56L22.24 5.56Q22.54 5.55 22.85 5.54L22.85 5.54L22.85 5.54Q22.83 5.32 22.83 5.07L22.83 5.07L22.83 5.07Q22.82 4.88 22.82 4.64L22.82 4.64L22.82 4.64Q22.82 4.40 22.80 4.20L22.80 4.20L22.80 4.20Q22.80 4.12 23.00 4.00L23.00 4.00L23.00 4.00Q23.20 3.88 23.43 3.79L23.43 3.79L23.43 3.79Q23.67 3.69 23.86 3.66L23.86 3.66L23.86 3.66Q24.06 3.64 24.06 3.76L24.06 3.76L24.06 3.76Q24.06 3.88 24.06 4.35L24.06 4.35L24.06 4.35Q24.05 4.83 24.02 5.50L24.02 5.50L24.02 5.50Q24.16 5.50 24.23 5.48L24.23 5.48L24.23 5.48Q24.95 5.46 25.40 5.42L25.40 5.42L25.40 5.42Q25.84 5.39 26.13 5.41L26.13 5.41L26.13 5.41Q26.41 5.44 26.63 5.55L26.63 5.55L26.63 5.55Q26.85 5.66 27.13 5.91L27.13 5.91L27.13 5.91Q27.22 5.99 27.29 6.08L27.29 6.08L27.29 6.08Q27.36 6.17 27.41 6.27L27.41 6.27L27.41 6.27Q27.45 6.37 27.45 6.48ZM29.20 7.31L29.20 7.31L29.20 7.31Q29.23 8.52 29.24 9.42L29.24 9.42L29.24 9.42Q29.26 10.32 29.27 10.94L29.27 10.94L29.27 10.94Q29.29 11.66 29.29 12.18L29.29 12.18L29.29 12.18Q29.30 12.82 29.18 13.51L29.18 13.51L29.18 13.51Q29.07 14.21 28.81 14.78L28.81 14.78L28.81 14.78Q28.55 15.35 28.12 15.72L28.12 15.72L28.12 15.72Q27.70 16.09 27.10 16.09L27.10 16.09L27.10 16.09Q26.37 16.09 25.99 15.80L25.99 15.80L25.99 15.80Q25.61 15.50 25.43 15.13L25.43 15.13L25.43 15.13Q25.25 14.77 25.22 14.44L25.22 14.44L25.22 14.44Q25.20 14.12 25.20 14.07L25.20 14.07L25.20 14.07Q25.20 13.96 25.33 13.82L25.33 13.82L25.33 13.82Q25.47 13.69 25.74 13.58L25.74 13.58L25.74 13.58Q25.85 13.54 25.96 13.51L25.96 13.51L25.96 13.51Q26.06 13.48 26.15 13.47L26.15 13.47L26.15 13.47Q26.25 13.45 26.33 13.48L26.33 13.48L26.33 13.48Q26.20 13.73 26.17 14.04L26.17 14.04L26.17 14.04Q26.15 14.36 26.26 14.64L26.26 14.64L26.26 14.64Q26.36 14.92 26.56 15.11L26.56 15.11L26.56 15.11Q26.77 15.30 27.08 15.30L27.08 15.30L27.08 15.30Q27.52 15.30 27.77 15.05L27.77 15.05L27.77 15.05Q28.03 14.79 28.16 14.42L28.16 14.42L28.16 14.42Q28.29 14.05 28.32 13.64L28.32 13.64L28.32 13.64Q28.36 13.23 28.36 12.92L28.36 12.92L28.36 12.92Q28.36 12.67 28.35 12.28L28.35 12.28L28.35 12.28Q28.34 11.89 28.30 11.42L28.30 11.42L28.30 11.42Q28.14 11.69 27.92 11.94L27.92 11.94L27.92 11.94Q27.70 12.20 27.45 12.39L27.45 12.39L27.45 12.39Q27.21 12.58 26.95 12.69L26.95 12.69L26.95 12.69Q26.70 12.81 26.46 12.81L26.46 12.81L26.46 12.81Q26.03 12.81 25.77 12.54L25.77 12.54L25.77 12.54Q25.51 12.28 25.38 11.87L25.38 11.87L25.38 11.87Q25.24 11.47 25.19 11.00L25.19 11.00L25.19 11.00Q25.14 10.53 25.14 10.13L25.14 10.13L25.14 10.13Q25.14 9.83 25.17 9.40L25.17 9.40L25.17 9.40Q25.20 8.97 25.24 8.57L25.24 8.57L25.24 8.57Q25.28 8.18 25.34 7.88L25.34 7.88L25.34 7.88Q25.40 7.59 25.47 7.55L25.47 7.55L25.47 7.55Q25.87 7.31 26.25 7.29L26.25 7.29L26.25 7.29Q26.63 7.26 26.82 7.38L26.82 7.38L26.82 7.38Q26.66 7.51 26.55 7.79L26.55 7.79L26.55 7.79Q26.44 8.08 26.37 8.43L26.37 8.43L26.37 8.43Q26.30 8.78 26.28 9.15L26.28 9.15L26.28 9.15Q26.25 9.53 26.25 9.83L26.25 9.83L26.25 9.83Q26.25 10.08 26.26 10.42L26.26 10.42L26.26 10.42Q26.28 10.76 26.33 11.07L26.33 11.07L26.33 11.07Q26.37 11.39 26.47 11.61L26.47 11.61L26.47 11.61Q26.56 11.83 26.71 11.83L26.71 11.83L26.71 11.83Q27.02 11.83 27.28 11.61L27.28 11.61L27.28 11.61Q27.54 11.39 27.73 11.06L27.73 11.06L27.73 11.06Q27.93 10.73 28.04 10.36L28.04 10.36L28.04 10.36Q28.15 9.98 28.15 9.65L28.15 9.65L28.15 9.54L28.15 9.54Q28.12 9.19 28.10 8.87L28.10 8.87L28.10 8.87Q28.07 8.54 28.05 8.29L28.05 8.29L28.05 8.29Q28.03 8.03 28.02 7.85L28.02 7.85L28.02 7.85Q28.01 7.68 28.01 7.63L28.01 7.63L28.01 7.63Q28.01 7.49 28.20 7.38L28.20 7.38L28.20 7.38Q28.38 7.27 28.61 7.23L28.61 7.23L28.61 7.23Q28.83 7.18 29.02 7.19L29.02 7.19L29.02 7.19Q29.20 7.21 29.20 7.31ZM37.00 10.21L37.00 10.21L37.00 10.21Q36.97 10.75 36.81 11.20L36.81 11.20L36.81 11.20Q36.65 11.65 36.38 11.98L36.38 11.98L36.38 11.98Q36.11 12.32 35.73 12.51L35.73 12.51L35.73 12.51Q35.36 12.70 34.90 12.71L34.90 12.71L34.90 12.71Q34.51 12.73 34.16 12.52L34.16 12.52L34.16 12.52Q33.81 12.32 33.55 11.95L33.55 11.95L33.55 11.95Q33.29 11.58 33.16 11.07L33.16 11.07L33.16 11.07Q33.03 10.55 33.09 9.95L33.09 9.95L33.09 9.95Q33.13 9.26 33.35 8.76L33.35 8.76L33.35 8.76Q33.56 8.26 33.81 7.93L33.81 7.93L33.81 7.93Q34.06 7.60 34.27 7.44L34.27 7.44L34.27 7.44Q34.48 7.29 34.54 7.26L34.54 7.26L34.54 7.26Q34.63 7.22 34.71 7.24L34.71 7.24L34.71 7.24Q34.79 7.26 34.89 7.29L34.89 7.29L34.89 7.29Q34.92 7.30 34.95 7.36L34.95 7.36L34.95 7.36Q35 7.45 35.01 7.71L35.01 7.71L35.01 7.71Q35.08 7.56 35.19 7.46L35.19 7.46L35.19 7.46Q35.30 7.37 35.41 7.33L35.41 7.33L35.41 7.33Q35.55 7.27 35.68 7.26L35.68 7.26L35.68 7.26Q35.78 7.25 36.02 7.41L36.02 7.41L36.02 7.41Q36.26 7.57 36.48 7.93L36.48 7.93L36.48 7.93Q36.71 8.29 36.87 8.85L36.87 8.85L36.87 8.85Q37.04 9.42 37.00 10.21ZM36.07 10.05L36.07 10.05L36.07 10.05Q36.08 9.72 36.05 9.39L36.05 9.39L36.05 9.39Q36.01 9.05 35.94 8.77L35.94 8.77L35.94 8.77Q35.86 8.49 35.75 8.32L35.75 8.32L35.75 8.32Q35.64 8.15 35.53 8.15L35.53 8.15L35.53 8.15Q35.41 8.18 35.26 8.27L35.26 8.27L35.26 8.27Q35.14 8.35 34.99 8.53L34.99 8.53L34.99 8.53Q34.84 8.71 34.70 9.04L34.70 9.04L34.70 9.04Q34.69 9.00 34.67 8.89L34.67 8.89L34.67 8.89Q34.66 8.79 34.65 8.63L34.65 8.63L34.65 8.63Q34.64 8.48 34.67 8.20L34.67 8.20L34.67 8.20Q34.48 8.44 34.38 8.75L34.38 8.75L34.38 8.75Q34.28 9.06 34.22 9.35L34.22 9.35L34.22 9.35Q34.17 9.69 34.14 10.04L34.14 10.04L34.14 10.04Q34.13 10.40 34.17 10.76L34.17 10.76L34.17 10.76Q34.22 11.12 34.34 11.39L34.34 11.39L34.34 11.39Q34.45 11.66 34.62 11.83L34.62 11.83L34.62 11.83Q34.78 11.99 35.01 11.98L35.01 11.98L35.01 11.98Q35.25 11.96 35.42 11.79L35.42 11.79L35.42 11.79Q35.60 11.61 35.74 11.33L35.74 11.33L35.74 11.33Q35.88 11.06 35.96 10.72L35.96 10.72L35.96 10.72Q36.04 10.38 36.07 10.05ZM41.44 8.37L41.44 8.37L41.44 8.37Q41.44 8.56 41.34 8.76L41.34 8.76L41.34 8.76Q41.23 8.96 41.08 9.13L41.08 9.13L41.08 9.13Q40.93 9.31 40.75 9.44L40.75 9.44L40.75 9.44Q40.56 9.57 40.40 9.60L40.40 9.60L40.40 9.60Q40.51 9.17 40.47 8.94L40.47 8.94L40.47 8.94Q40.43 8.71 40.33 8.60L40.33 8.60L40.33 8.60Q40.22 8.48 40.06 8.46L40.06 8.46L40.06 8.46Q39.81 8.46 39.59 8.74L39.59 8.74L39.59 8.74Q39.36 9.02 39.20 9.43L39.20 9.43L39.20 9.43Q39.03 9.83 38.94 10.29L38.94 10.29L38.94 10.29Q38.84 10.75 38.84 11.12L38.84 11.12L38.84 11.12Q38.83 11.38 38.86 11.62L38.86 11.62L38.86 11.62Q38.87 11.83 38.90 12.04L38.90 12.04L38.90 12.04Q38.94 12.26 39.01 12.39L39.01 12.39L39.01 12.39Q38.92 12.46 38.74 12.55L38.74 12.55L38.74 12.55Q38.55 12.65 38.36 12.67L38.36 12.67L38.36 12.67Q38.16 12.70 38.00 12.61L38.00 12.61L38.00 12.61Q37.84 12.51 37.83 12.20L37.83 12.20L37.83 12.20Q37.80 11.89 37.80 11.52L37.80 11.52L37.80 11.52Q37.79 11.14 37.80 10.77L37.80 10.77L37.80 10.77Q37.80 10.39 37.82 10.02L37.82 10.02L37.82 10.02Q37.83 9.65 37.86 9.34L37.86 9.34L37.86 9.34Q37.88 8.74 37.88 8.41L37.88 8.41L37.88 8.41Q37.88 8.08 37.87 7.78L37.87 7.78L37.87 7.78Q37.87 7.72 38.06 7.62L38.06 7.62L38.06 7.62Q38.24 7.52 38.47 7.44L38.47 7.44L38.47 7.44Q38.69 7.36 38.88 7.34L38.88 7.34L38.88 7.34Q39.07 7.33 39.07 7.42L39.07 7.42L39.07 7.42Q39.07 7.57 39.04 8.02L39.04 8.02L39.04 8.02Q39.01 8.46 38.95 8.94L38.95 8.94L38.95 8.94Q39.05 8.68 39.20 8.38L39.20 8.38L39.20 8.38Q39.36 8.08 39.57 7.82L39.57 7.82L39.57 7.82Q39.77 7.56 40.03 7.39L40.03 7.39L40.03 7.39Q40.29 7.22 40.61 7.22L40.61 7.22L40.61 7.22Q40.85 7.22 41.01 7.37L41.01 7.37L41.01 7.37Q41.17 7.52 41.26 7.71L41.26 7.71L41.26 7.71Q41.36 7.90 41.40 8.09L41.40 8.09L41.40 8.09Q41.44 8.29 41.44 8.37ZM45.28 6.22L45.28 6.22L45.28 6.22Q45.09 6.17 44.89 6.05L44.89 6.05L44.89 6.05Q44.69 5.93 44.54 5.78L44.54 5.78L44.54 5.78Q44.38 5.62 44.30 5.43L44.30 5.43L44.30 5.43Q44.21 5.24 44.26 5.02L44.26 5.02L44.26 5.02Q44.34 4.57 44.78 4.17L44.78 4.17L44.78 4.17Q45.21 3.77 45.95 3.54L45.95 3.54L45.95 3.50L45.95 3.50Q45.96 3.35 46.15 3.19L46.15 3.19L46.15 3.19Q46.33 3.04 46.61 2.98L46.61 2.98L46.61 2.98Q46.87 2.93 46.98 2.98L46.98 2.98L46.98 2.98Q47.10 3.04 47.10 3.13L47.10 3.13L47.10 3.13Q47.10 3.16 47.09 3.19L47.09 3.19L47.09 3.19Q47.09 3.23 47.09 3.25L47.09 3.25L47.09 3.32L47.09 3.32Q47.76 3.27 48.58 3.36L48.58 3.36L48.58 3.36Q49.56 3.49 50.18 3.83L50.18 3.83L50.18 3.83Q50.79 4.17 51.11 4.61L51.11 4.61L51.11 4.61Q51.42 5.06 51.50 5.54L51.50 5.54L51.50 5.54Q51.57 6.02 51.49 6.41L51.49 6.41L51.49 6.41Q51.41 6.88 51.19 7.25L51.19 7.25L51.19 7.25Q50.97 7.63 50.67 7.92L50.67 7.92L50.67 7.92Q50.37 8.22 50.00 8.44L50.00 8.44L50.00 8.44Q49.63 8.65 49.22 8.80L49.22 8.80L49.22 8.80Q49.66 8.90 49.96 9.11L49.96 9.11L49.96 9.11Q50.27 9.32 50.46 9.61L50.46 9.61L50.46 9.61Q50.65 9.90 50.74 10.25L50.74 10.25L50.74 10.25Q50.82 10.61 50.79 10.98L50.79 10.98L50.79 10.98Q50.76 11.55 50.50 12.05L50.50 12.05L50.50 12.05Q50.23 12.55 49.78 12.92L49.78 12.92L49.78 12.92Q49.33 13.29 48.71 13.49L48.71 13.49L48.71 13.49Q48.08 13.70 47.33 13.67L47.33 13.67L47.17 13.67L47.17 13.67Q46.96 13.85 46.72 13.94L46.72 13.94L46.72 13.94Q46.48 14.03 46.27 14.07L46.27 14.07L46.27 14.07Q46.02 14.12 45.77 14.11L45.77 14.11L45.77 14.11Q45.77 14.01 45.78 13.91L45.78 13.91L45.78 13.91Q45.79 13.81 45.79 13.71L45.79 13.71L45.79 13.71Q45.79 13.60 45.80 13.49L45.80 13.49L45.80 13.49Q45.64 13.47 45.49 13.41L45.49 13.41L45.49 13.41Q45.35 13.37 45.21 13.32L45.21 13.32L45.21 13.32Q45.06 13.28 44.95 13.22L44.95 13.22L44.95 13.22Q44.90 13.14 44.87 13.02L44.87 13.02L44.87 13.02Q44.84 12.91 44.84 12.78L44.84 12.78L44.84 12.78Q44.83 12.65 44.88 12.48L44.88 12.48L44.88 12.48Q45.31 12.65 45.86 12.73L45.86 12.73L45.86 12.73Q45.88 12.03 45.90 11.07L45.90 11.07L45.90 11.07Q45.92 10.12 45.92 9.06L45.92 9.06L45.92 9.06Q45.92 7.88 45.93 6.73L45.93 6.73L45.93 6.73Q45.94 5.58 45.94 4.76L45.94 4.76L45.94 4.76Q45.54 4.96 45.32 5.32L45.32 5.32L45.32 5.32Q45.10 5.67 45.28 6.22ZM49.49 11.05L49.49 11.05L49.49 11.05Q49.55 10.45 49.31 10.08L49.31 10.08L49.31 10.08Q49.08 9.72 48.71 9.54L48.71 9.54L48.71 9.54Q48.33 9.35 47.89 9.31L47.89 9.31L47.89 9.31Q47.44 9.27 47.09 9.30L47.09 9.30L47.09 9.30Q47.11 10.43 47.13 11.35L47.13 11.35L47.13 11.35Q47.14 12.28 47.15 12.87L47.15 12.87L47.15 12.87Q47.58 12.88 47.97 12.77L47.97 12.77L47.97 12.77Q48.37 12.66 48.69 12.43L48.69 12.43L48.69 12.43Q49.01 12.20 49.23 11.85L49.23 11.85L49.23 11.85Q49.45 11.50 49.49 11.05ZM47.06 4.44L47.06 4.44L47.06 4.44Q47.03 5.14 47.03 6.10L47.03 6.10L47.03 6.10Q47.03 7.05 47.06 8.23L47.06 8.23L47.06 8.23Q47.06 8.34 47.06 8.44L47.06 8.44L47.06 8.44Q47.06 8.54 47.07 8.65L47.07 8.65L47.07 8.65Q47.56 8.61 48.10 8.42L48.10 8.42L48.10 8.42Q48.63 8.22 49.08 7.89L49.08 7.89L49.08 7.89Q49.52 7.56 49.81 7.12L49.81 7.12L49.81 7.12Q50.09 6.67 50.09 6.14L50.09 6.14L50.09 6.14Q50.09 5.73 49.88 5.41L49.88 5.41L49.88 5.41Q49.66 5.09 49.29 4.87L49.29 4.87L49.29 4.87Q48.93 4.65 48.46 4.54L48.46 4.54L48.46 4.54Q47.99 4.43 47.48 4.43L47.48 4.43L47.48 4.43Q47.37 4.43 47.27 4.43L47.27 4.43L47.27 4.43Q47.17 4.43 47.06 4.44ZM53.66 12.71L53.66 12.71L53.66 12.71Q52.71 12.71 52.19 12.07L52.19 12.07L52.19 12.07Q51.67 11.43 51.67 10.39L51.67 10.39L51.67 10.39Q51.67 9.67 51.88 9.03L51.88 9.03L51.88 9.03Q52.09 8.39 52.45 7.93L52.45 7.93L52.45 7.93Q52.80 7.46 53.27 7.20L53.27 7.20L53.27 7.20Q53.74 6.93 54.26 6.93L54.26 6.93L54.26 6.93Q54.77 6.93 55.13 7.29L55.13 7.29L55.13 7.29Q55.48 7.66 55.48 8.33L55.48 8.33L55.48 8.33Q55.48 8.76 55.29 9.19L55.29 9.19L55.29 9.19Q55.10 9.63 54.79 9.96L54.79 9.96L54.79 9.96Q54.48 10.29 54.11 10.50L54.11 10.50L54.11 10.50Q53.74 10.71 53.40 10.71L53.40 10.71L53.40 10.71Q53.18 10.71 53.03 10.65L53.03 10.65L53.03 10.65Q52.88 10.60 52.76 10.49L52.76 10.49L52.76 10.49Q52.80 11.27 53.10 11.57L53.10 11.57L53.10 11.57Q53.40 11.88 53.88 11.88L53.88 11.88L53.88 11.88Q54.21 11.88 54.46 11.74L54.46 11.74L54.46 11.74Q54.71 11.61 54.89 11.43L54.89 11.43L54.89 11.43Q55.07 11.25 55.18 11.07L55.18 11.07L55.18 11.07Q55.29 10.88 55.33 10.79L55.33 10.79L55.33 10.79Q55.37 10.71 55.47 10.71L55.47 10.71L55.47 10.71Q55.58 10.71 55.58 10.87L55.58 10.87L55.58 10.87Q55.58 11.02 55.47 11.33L55.47 11.33L55.47 11.33Q55.37 11.63 55.14 11.94L55.14 11.94L55.14 11.94Q54.91 12.25 54.54 12.48L54.54 12.48L54.54 12.48Q54.18 12.71 53.66 12.71ZM54.29 7.52L54.29 7.52L54.29 7.52Q54.21 7.52 53.98 7.69L53.98 7.69L53.98 7.69Q53.76 7.86 53.50 8.19L53.50 8.19L53.50 8.19Q53.25 8.52 53.04 8.98L53.04 8.98L53.04 8.98Q52.83 9.43 52.77 10.01L52.77 10.01L52.77 10.01Q53.59 9.82 54.07 9.41L54.07 9.41L54.07 9.41Q54.55 9.00 54.55 8.20L54.55 8.20L54.55 8.20Q54.55 7.81 54.46 7.66L54.46 7.66L54.46 7.66Q54.36 7.52 54.29 7.52ZM60.32 11.87L60.32 11.87L60.32 11.87Q60.35 11.96 60.40 12.04L60.40 12.04L60.40 12.04Q60.44 12.11 60.52 12.17L60.52 12.17L60.52 12.17Q60.59 12.24 60.70 12.25L60.70 12.25L60.70 12.25Q60.61 12.44 60.51 12.51L60.51 12.51L60.51 12.51Q60.46 12.55 60.42 12.56L60.42 12.56L60.42 12.56Q60.29 12.61 60.05 12.61L60.05 12.61L60.05 12.61Q59.80 12.61 59.57 12.46L59.57 12.46L59.57 12.46Q59.49 12.39 59.42 12.25L59.42 12.25L59.42 12.25Q59.35 12.14 59.30 11.94L59.30 11.94L59.30 11.94Q59.25 11.74 59.23 11.43L59.23 11.43L59.23 11.43Q59.04 11.84 58.80 12.08L58.80 12.08L58.80 12.08Q58.56 12.32 58.32 12.43L58.32 12.43L58.32 12.43Q58.06 12.58 57.79 12.61L57.79 12.61L57.79 12.61Q57.45 12.63 57.14 12.49L57.14 12.49L57.14 12.49Q56.83 12.35 56.62 12.05L56.62 12.05L56.62 12.05Q56.41 11.76 56.30 11.33L56.30 11.33L56.30 11.33Q56.19 10.91 56.23 10.38L56.23 10.38L56.23 10.38Q56.27 9.82 56.45 9.38L56.45 9.38L56.45 9.38Q56.63 8.94 56.88 8.60L56.88 8.60L56.88 8.60Q57.12 8.26 57.39 8.02L57.39 8.02L57.39 8.02Q57.67 7.78 57.92 7.62L57.92 7.62L57.92 7.62Q58.17 7.46 58.36 7.39L58.36 7.39L58.36 7.39Q58.54 7.31 58.60 7.30L58.60 7.30L58.60 7.30Q58.75 7.26 58.86 7.27L58.86 7.27L58.86 7.27Q58.97 7.29 59.05 7.40L59.05 7.40L59.05 7.40Q59.08 7.44 59.12 7.49L59.12 7.49L59.12 7.49Q59.14 7.55 59.19 7.64L59.19 7.64L59.19 7.64Q59.23 7.72 59.25 7.83L59.25 7.83L59.25 7.83Q58.93 7.98 58.64 8.17L58.64 8.17L58.64 8.17Q58.35 8.35 58.11 8.61L58.11 8.61L58.11 8.61Q57.87 8.87 57.70 9.24L57.70 9.24L57.70 9.24Q57.52 9.61 57.42 10.14L57.42 10.14L57.42 10.14Q57.29 10.81 57.50 11.22L57.50 11.22L57.50 11.22Q57.71 11.63 58.08 11.57L58.08 11.57L58.08 11.57Q58.30 11.50 58.50 11.31L58.50 11.31L58.50 11.31Q58.68 11.14 58.88 10.81L58.88 10.81L58.88 10.81Q59.08 10.49 59.25 9.91L59.25 9.91L59.25 9.91Q59.32 9.09 59.37 8.62L59.37 8.62L59.37 8.62Q59.42 8.15 59.46 7.90L59.46 7.90L59.46 7.90Q59.51 7.62 59.54 7.52L59.54 7.52L59.54 7.52Q59.58 7.45 59.71 7.39L59.71 7.39L59.71 7.39Q59.83 7.33 59.98 7.29L59.98 7.29L59.98 7.29Q60.13 7.25 60.25 7.24L60.25 7.24L60.25 7.24Q60.38 7.23 60.42 7.25L60.42 7.25L60.42 7.25Q60.44 7.26 60.44 7.58L60.44 7.58L60.44 7.58Q60.44 7.90 60.42 8.39L60.42 8.39L60.42 8.39Q60.40 8.87 60.38 9.44L60.38 9.44L60.38 9.44Q60.35 10.01 60.33 10.51L60.33 10.51L60.33 10.51Q60.31 11.02 60.30 11.40L60.30 11.40L60.30 11.40Q60.29 11.77 60.32 11.87ZM63.66 9.97L63.66 9.97L63.66 9.97Q63.96 10.08 64.23 10.17L64.23 10.17L64.23 10.17Q64.50 10.27 64.71 10.40L64.71 10.40L64.71 10.40Q64.91 10.54 65.04 10.73L65.04 10.73L65.04 10.73Q65.16 10.91 65.16 11.18L65.16 11.18L65.16 11.18Q65.16 11.51 65.02 11.80L65.02 11.80L65.02 11.80Q64.87 12.09 64.60 12.30L64.60 12.30L64.60 12.30Q64.33 12.52 63.94 12.65L63.94 12.65L63.94 12.65Q63.55 12.78 63.07 12.78L63.07 12.78L63.07 12.78Q62.54 12.78 62.21 12.68L62.21 12.68L62.21 12.68Q61.88 12.58 61.70 12.44L61.70 12.44L61.70 12.44Q61.52 12.30 61.47 12.17L61.47 12.17L61.47 12.17Q61.41 12.03 61.41 11.95L61.41 11.95L61.41 11.95Q61.41 11.79 61.48 11.59L61.48 11.59L61.48 11.59Q61.55 11.39 61.74 11.16L61.74 11.16L61.74 11.16Q61.82 11.06 61.92 10.98L61.92 10.98L61.92 10.98Q62.11 10.81 62.30 10.77L62.30 10.77L62.30 10.77Q62.28 11.09 62.38 11.29L62.38 11.29L62.38 11.29Q62.48 11.48 62.65 11.59L62.65 11.59L62.65 11.59Q62.82 11.70 63.03 11.74L63.03 11.74L63.03 11.74Q63.25 11.79 63.44 11.79L63.44 11.79L63.44 11.79Q63.63 11.79 63.83 11.73L63.83 11.73L63.83 11.73Q64.03 11.68 64.19 11.59L64.19 11.59L64.19 11.59Q64.35 11.50 64.46 11.38L64.46 11.38L64.46 11.38Q64.56 11.27 64.56 11.13L64.56 11.13L64.56 11.13Q64.56 10.98 64.44 10.88L64.44 10.88L64.44 10.88Q64.31 10.79 64.13 10.73L64.13 10.73L64.13 10.73Q63.94 10.66 63.73 10.63L63.73 10.63L63.73 10.63Q63.52 10.60 63.33 10.55L63.33 10.55L63.33 10.55Q63.14 10.51 62.82 10.44L62.82 10.44L62.82 10.44Q62.49 10.36 62.19 10.20L62.19 10.20L62.19 10.20Q61.88 10.04 61.65 9.76L61.65 9.76L61.65 9.76Q61.43 9.49 61.43 9.04L61.43 9.04L61.43 9.04Q61.43 8.52 61.69 8.13L61.69 8.13L61.69 8.13Q61.96 7.74 62.35 7.47L62.35 7.47L62.35 7.47Q62.74 7.21 63.18 7.07L63.18 7.07L63.18 7.07Q63.62 6.93 63.96 6.93L63.96 6.93L63.96 6.93Q64.13 6.93 64.34 6.98L64.34 6.98L64.34 6.98Q64.54 7.03 64.72 7.14L64.72 7.14L64.72 7.14Q64.90 7.26 65.02 7.45L65.02 7.45L65.02 7.45Q65.13 7.64 65.13 7.94L65.13 7.94L65.13 7.94Q65.13 8.24 65.08 8.43L65.08 8.43L65.08 8.43Q65.04 8.61 64.95 8.72L64.95 8.72L64.95 8.72Q64.86 8.82 64.74 8.85L64.74 8.85L64.74 8.85Q64.61 8.87 64.45 8.87L64.45 8.87L64.45 8.87Q64.34 8.87 64.24 8.85L64.24 8.85L64.24 8.85Q64.16 8.82 64.07 8.79L64.07 8.79L64.07 8.79Q63.97 8.76 63.89 8.70L63.89 8.70L63.89 8.70Q64.03 8.53 64.10 8.38L64.10 8.38L64.10 8.38Q64.18 8.23 64.18 8.01L64.18 8.01L64.18 8.01Q64.18 7.82 64.07 7.67L64.07 7.67L64.07 7.67Q63.97 7.52 63.74 7.52L63.74 7.52L63.74 7.52Q63.49 7.52 63.27 7.62L63.27 7.62L63.27 7.62Q63.04 7.71 62.87 7.88L62.87 7.88L62.87 7.88Q62.70 8.04 62.60 8.25L62.60 8.25L62.60 8.25Q62.49 8.46 62.49 8.71L62.49 8.71L62.49 8.71Q62.49 9.08 62.77 9.41L62.77 9.41L62.77 9.41Q63.05 9.73 63.66 9.97ZM71.09 6.48L71.09 6.48L71.09 6.48Q70.94 6.45 70.69 6.43L70.69 6.43L70.69 6.43Q70.44 6.40 70.18 6.38L70.18 6.38L70.18 6.38Q69.88 6.37 69.54 6.37L69.54 6.37L69.54 6.37Q69.19 6.34 68.68 6.36L68.68 6.36L68.68 6.36Q68.17 6.38 67.61 6.38L67.61 6.38L67.61 6.38Q67.59 6.74 67.56 7.11L67.56 7.11L67.56 7.11Q67.53 7.48 67.50 7.83L67.50 7.83L67.50 7.83Q67.43 8.49 67.38 9.17L67.38 9.17L67.38 9.17Q67.33 9.86 67.33 10.47L67.33 10.47L67.33 10.47Q67.33 11.09 67.41 11.59L67.41 11.59L67.41 11.59Q67.48 12.09 67.69 12.37L67.69 12.37L67.69 12.37Q67.53 12.50 67.33 12.56L67.33 12.56L67.33 12.56Q67.14 12.62 66.99 12.65L66.99 12.65L66.99 12.65Q66.81 12.69 66.64 12.69L66.64 12.69L66.64 12.69Q66.47 12.69 66.36 12.58L66.36 12.58L66.36 12.58Q66.25 12.47 66.24 12.20L66.24 12.20L66.24 12.20Q66.21 11.73 66.23 11.26L66.23 11.26L66.23 11.26Q66.25 10.79 66.29 10.27L66.29 10.27L66.29 10.27Q66.32 9.75 66.36 9.15L66.36 9.15L66.36 9.15Q66.40 8.56 66.45 7.85L66.45 7.85L66.45 7.85Q66.49 7.11 66.49 6.41L66.49 6.41L66.49 6.41Q65.97 6.43 65.61 6.43L65.61 6.43L65.61 6.43Q65.26 6.43 65.21 6.41L65.21 6.41L65.21 6.41Q65.17 6.38 65.12 6.29L65.12 6.29L65.12 6.29Q65.06 6.21 64.98 6.04L64.98 6.04L64.98 6.04Q64.89 5.88 64.75 5.58L64.75 5.58L64.75 5.58Q65.01 5.58 65.32 5.58L65.32 5.58L65.32 5.58Q65.63 5.58 65.88 5.56L65.88 5.56L65.88 5.56Q66.19 5.55 66.49 5.54L66.49 5.54L66.49 5.54Q66.47 5.32 66.47 5.07L66.47 5.07L66.47 5.07Q66.46 4.88 66.46 4.64L66.46 4.64L66.46 4.64Q66.46 4.40 66.45 4.20L66.45 4.20L66.45 4.20Q66.45 4.12 66.64 4.00L66.64 4.00L66.64 4.00Q66.84 3.88 67.07 3.79L67.07 3.79L67.07 3.79Q67.31 3.69 67.50 3.66L67.50 3.66L67.50 3.66Q67.70 3.64 67.70 3.76L67.70 3.76L67.70 3.76Q67.70 3.88 67.70 4.35L67.70 4.35L67.70 4.35Q67.69 4.83 67.66 5.50L67.66 5.50L67.66 5.50Q67.80 5.50 67.87 5.48L67.87 5.48L67.87 5.48Q68.59 5.46 69.04 5.42L69.04 5.42L69.04 5.42Q69.48 5.39 69.77 5.41L69.77 5.41L69.77 5.41Q70.05 5.44 70.27 5.55L70.27 5.55L70.27 5.55Q70.49 5.66 70.77 5.91L70.77 5.91L70.77 5.91Q70.86 5.99 70.93 6.08L70.93 6.08L70.93 6.08Q71.00 6.17 71.05 6.27L71.05 6.27L71.05 6.27Q71.09 6.37 71.09 6.48ZM79.41 13.73L79.41 13.73L79.41 13.73Q79.00 13.71 78.85 13.47L78.85 13.47L78.85 13.47Q78.70 13.23 78.67 12.81L78.67 12.81L78.67 12.81Q78.64 12.39 78.70 11.81L78.70 11.81L78.70 11.81Q78.75 11.22 78.75 10.54L78.75 10.54L78.75 10.54Q78.76 9.19 78.85 8.07L78.85 8.07L78.85 8.07Q78.94 6.96 78.90 5.91L78.90 5.91L78.90 5.91Q78.90 5.82 78.90 5.76L78.90 5.76L78.90 5.76Q78.90 5.69 78.89 5.62L78.89 5.62L78.89 5.62Q78.82 5.85 78.73 6.15L78.73 6.15L78.73 6.15Q78.64 6.44 78.52 6.79L78.52 6.79L78.52 6.79Q78.27 7.56 78.03 8.37L78.03 8.37L78.03 8.37Q77.79 9.17 77.57 9.93L77.57 9.93L77.57 9.93Q77.34 10.69 77.14 11.34L77.14 11.34L77.14 11.34Q76.95 11.99 76.79 12.43L76.79 12.43L76.79 12.43Q76.64 12.87 76.50 13.08L76.50 13.08L76.50 13.08Q76.36 13.29 76.21 13.37L76.21 13.37L76.21 13.37Q76.07 13.45 75.93 13.44L75.93 13.44L75.93 13.44Q75.78 13.43 75.65 13.41L75.65 13.41L75.65 13.41Q75.59 12.95 75.44 12.32L75.44 12.32L75.44 12.32Q75.29 11.69 75.13 11.12L75.13 11.12L75.13 11.12Q74.94 10.45 74.70 9.75L74.70 9.75L74.70 9.75Q74.39 8.54 74.05 7.55L74.05 7.55L74.05 7.55Q73.71 6.55 73.51 5.91L73.51 5.91L73.51 5.91Q73.43 6.60 73.39 7.51L73.39 7.51L73.39 7.51Q73.35 8.41 73.34 9.31L73.34 9.31L73.34 9.31Q73.32 10.21 73.35 11.01L73.35 11.01L73.35 11.01Q73.38 11.81 73.43 12.30L73.43 12.30L73.43 12.30Q73.45 12.51 73.49 12.71L73.49 12.71L73.49 12.71Q73.51 12.89 73.56 13.08L73.56 13.08L73.56 13.08Q73.61 13.26 73.68 13.41L73.68 13.41L73.68 13.41Q73.61 13.47 73.51 13.51L73.51 13.51L73.51 13.51Q73.42 13.55 73.31 13.58L73.31 13.58L73.31 13.58Q73.19 13.62 73.05 13.64L73.05 13.64L73.05 13.64Q72.52 13.75 72.28 13.62L72.28 13.62L72.28 13.62Q72.04 13.48 71.98 13.07L71.98 13.07L71.98 13.07Q71.96 12.87 71.94 12.30L71.94 12.30L71.94 12.30Q71.93 11.74 71.93 11.01L71.93 11.01L71.93 11.01Q71.94 10.28 71.97 9.47L71.97 9.47L71.97 9.47Q72.00 8.67 72.05 7.97L72.05 7.97L72.05 7.97Q72.11 7.41 72.16 6.75L72.16 6.75L72.16 6.75Q72.21 6.18 72.27 5.43L72.27 5.43L72.27 5.43Q72.32 4.68 72.39 3.80L72.39 3.80L72.39 3.80Q72.43 3.72 72.53 3.66L72.53 3.66L72.53 3.66Q72.63 3.60 72.73 3.55L72.73 3.55L72.73 3.55Q72.86 3.50 73.01 3.47L73.01 3.47L73.01 3.47Q73.24 3.43 73.42 3.40L73.42 3.40L73.42 3.40Q73.57 3.38 73.70 3.36L73.70 3.36L73.70 3.36Q73.83 3.35 73.80 3.36L73.80 3.36L73.80 3.36Q73.98 3.73 74.07 3.97L74.07 3.97L74.07 3.97Q74.17 4.21 74.27 4.54L74.27 4.54L74.27 4.54Q74.38 4.87 74.53 5.40L74.53 5.40L74.53 5.40Q74.69 5.93 74.99 6.89L74.99 6.89L74.99 6.89Q75.40 8.22 75.69 9.20L75.69 9.20L75.69 9.20Q75.99 10.19 76.14 10.71L76.14 10.71L76.14 10.71Q76.23 10.53 76.33 10.32L76.33 10.32L76.33 10.32Q76.43 10.10 76.53 9.80L76.53 9.80L76.53 9.80Q76.63 9.50 76.75 9.10L76.75 9.10L76.75 9.10Q76.86 8.70 77.01 8.13L77.01 8.13L77.01 8.13Q77.21 7.52 77.41 6.81L77.41 6.81L77.41 6.81Q77.57 6.21 77.77 5.43L77.77 5.43L77.77 5.43Q77.97 4.66 78.15 3.83L78.15 3.83L78.15 3.83Q78.59 3.65 78.86 3.56L78.86 3.56L78.86 3.56Q79.13 3.47 79.28 3.42L79.28 3.42L79.28 3.42Q79.46 3.36 79.54 3.35L79.54 3.35L79.54 3.35Q79.63 3.36 79.71 3.43L79.71 3.43L79.71 3.43Q79.78 3.50 79.87 3.62L79.87 3.62L79.87 3.62Q79.97 3.75 80.08 3.99L80.08 3.99L80.08 3.99Q80.08 4.18 80.08 4.61L80.08 4.61L80.08 4.61Q80.08 5.03 80.08 5.58L80.08 5.58L80.08 5.58Q80.08 6.14 80.06 6.78L80.06 6.78L80.06 6.78Q80.05 7.42 80.04 8.07L80.04 8.07L80.04 8.07Q80.04 8.72 80.03 9.34L80.03 9.34L80.03 9.34Q80.02 9.95 80.01 10.43L80.01 10.43L80.01 10.43Q79.98 11.16 80.00 11.66L80.00 11.66L80.00 11.66Q80.02 12.17 80.08 12.50L80.08 12.50L80.08 12.50Q80.14 12.84 80.25 13.04L80.25 13.04L80.25 13.04Q80.35 13.25 80.50 13.37L80.50 13.37L80.50 13.37Q80.46 13.40 80.34 13.46L80.34 13.46L80.34 13.46Q80.23 13.52 80.06 13.58L80.06 13.58L80.06 13.58Q79.90 13.64 79.72 13.69L79.72 13.69L79.72 13.69Q79.54 13.73 79.41 13.73ZM85.30 11.87L85.30 11.87L85.30 11.87Q85.33 11.96 85.38 12.04L85.38 12.04L85.38 12.04Q85.42 12.11 85.50 12.17L85.50 12.17L85.50 12.17Q85.57 12.24 85.68 12.25L85.68 12.25L85.68 12.25Q85.59 12.44 85.49 12.51L85.49 12.51L85.49 12.51Q85.44 12.55 85.39 12.56L85.39 12.56L85.39 12.56Q85.27 12.61 85.03 12.61L85.03 12.61L85.03 12.61Q84.78 12.61 84.55 12.46L84.55 12.46L84.55 12.46Q84.46 12.39 84.40 12.25L84.40 12.25L84.40 12.25Q84.33 12.14 84.28 11.94L84.28 11.94L84.28 11.94Q84.23 11.74 84.21 11.43L84.21 11.43L84.21 11.43Q84.01 11.84 83.77 12.08L83.77 12.08L83.77 12.08Q83.54 12.32 83.30 12.43L83.30 12.43L83.30 12.43Q83.04 12.58 82.77 12.61L82.77 12.61L82.77 12.61Q82.43 12.63 82.12 12.49L82.12 12.49L82.12 12.49Q81.81 12.35 81.60 12.05L81.60 12.05L81.60 12.05Q81.39 11.76 81.28 11.33L81.28 11.33L81.28 11.33Q81.17 10.91 81.21 10.38L81.21 10.38L81.21 10.38Q81.25 9.82 81.43 9.38L81.43 9.38L81.43 9.38Q81.61 8.94 81.85 8.60L81.85 8.60L81.85 8.60Q82.10 8.26 82.37 8.02L82.37 8.02L82.37 8.02Q82.65 7.78 82.90 7.62L82.90 7.62L82.90 7.62Q83.15 7.46 83.34 7.39L83.34 7.39L83.34 7.39Q83.52 7.31 83.58 7.30L83.58 7.30L83.58 7.30Q83.73 7.26 83.84 7.27L83.84 7.27L83.84 7.27Q83.95 7.29 84.03 7.40L84.03 7.40L84.03 7.40Q84.05 7.44 84.10 7.49L84.10 7.49L84.10 7.49Q84.12 7.55 84.16 7.64L84.16 7.64L84.16 7.64Q84.21 7.72 84.23 7.83L84.23 7.83L84.23 7.83Q83.90 7.98 83.62 8.17L83.62 8.17L83.62 8.17Q83.33 8.35 83.09 8.61L83.09 8.61L83.09 8.61Q82.85 8.87 82.67 9.24L82.67 9.24L82.67 9.24Q82.50 9.61 82.40 10.14L82.40 10.14L82.40 10.14Q82.26 10.81 82.48 11.22L82.48 11.22L82.48 11.22Q82.69 11.63 83.06 11.57L83.06 11.57L83.06 11.57Q83.28 11.50 83.48 11.31L83.48 11.31L83.48 11.31Q83.66 11.14 83.86 10.81L83.86 10.81L83.86 10.81Q84.05 10.49 84.23 9.91L84.23 9.91L84.23 9.91Q84.30 9.09 84.35 8.62L84.35 8.62L84.35 8.62Q84.40 8.15 84.44 7.90L84.44 7.90L84.44 7.90Q84.49 7.62 84.52 7.52L84.52 7.52L84.52 7.52Q84.56 7.45 84.68 7.39L84.68 7.39L84.68 7.39Q84.81 7.33 84.96 7.29L84.96 7.29L84.96 7.29Q85.11 7.25 85.23 7.24L85.23 7.24L85.23 7.24Q85.35 7.23 85.39 7.25L85.39 7.25L85.39 7.25Q85.42 7.26 85.42 7.58L85.42 7.58L85.42 7.58Q85.42 7.90 85.40 8.39L85.40 8.39L85.40 8.39Q85.38 8.87 85.35 9.44L85.35 9.44L85.35 9.44Q85.33 10.01 85.31 10.51L85.31 10.51L85.31 10.51Q85.29 11.02 85.28 11.40L85.28 11.40L85.28 11.40Q85.27 11.77 85.30 11.87ZM89.24 9.30L89.24 9.30L89.24 9.30Q89.52 9.42 89.78 9.69L89.78 9.69L89.78 9.69Q90.04 9.95 90.11 10.49L90.11 10.49L90.11 10.49Q90.17 10.95 90.26 11.32L90.26 11.32L90.26 11.32Q90.36 11.69 90.54 11.98L90.54 11.98L90.54 11.98Q90.71 12.28 91.01 12.50L91.01 12.50L91.01 12.50Q91.30 12.73 91.77 12.89L91.77 12.89L91.77 12.89Q91.64 13.00 91.47 13.07L91.47 13.07L91.47 13.07Q91.30 13.14 91.15 13.17L91.15 13.17L91.15 13.17Q90.97 13.22 90.78 13.22L90.78 13.22L90.78 13.22Q90.33 13.26 90.04 13.10L90.04 13.10L90.04 13.10Q89.76 12.95 89.59 12.65L89.59 12.65L89.59 12.65Q89.43 12.35 89.35 11.95L89.35 11.95L89.35 11.95Q89.26 11.55 89.22 11.13L89.22 11.13L89.22 11.13Q89.21 10.95 89.18 10.76L89.18 10.76L89.18 10.76Q89.15 10.57 89.09 10.39L89.09 10.39L89.09 10.39Q89.02 10.21 88.90 10.06L88.90 10.06L88.90 10.06Q88.79 9.91 88.61 9.83L88.61 9.83L88.61 9.83Q88.31 10.06 88.05 10.23L88.05 10.23L88.05 10.23Q87.80 10.40 87.61 10.51L87.61 10.51L87.61 10.51Q87.62 11.25 87.68 11.73L87.68 11.73L87.68 11.73Q87.75 12.21 87.86 12.37L87.86 12.37L87.86 12.37Q87.76 12.44 87.66 12.49L87.66 12.49L87.66 12.49Q87.57 12.54 87.50 12.56L87.50 12.56L87.50 12.56Q87.40 12.61 87.32 12.62L87.32 12.62L87.32 12.62Q87.05 12.70 86.84 12.60L86.84 12.60L86.84 12.60Q86.63 12.50 86.61 12.06L86.61 12.06L86.53 4.07L86.53 4.07Q86.53 3.96 86.74 3.85L86.74 3.85L86.74 3.85Q86.95 3.73 87.21 3.66L87.21 3.66L87.21 3.66Q87.47 3.60 87.68 3.60L87.68 3.60L87.68 3.60Q87.90 3.60 87.88 3.72L87.88 3.72L87.88 3.72Q87.84 4.66 87.80 5.50L87.80 5.50L87.80 5.50Q87.76 6.33 87.73 6.97L87.73 6.97L87.73 6.97Q87.69 7.72 87.66 8.34L87.66 8.34L87.66 8.34Q87.64 8.71 87.63 9.05L87.63 9.05L87.63 9.05Q87.62 9.39 87.61 9.71L87.61 9.71L87.61 9.71Q87.87 9.50 88.16 9.26L88.16 9.26L88.16 9.26Q88.44 9.01 88.70 8.71L88.70 8.71L88.70 8.71Q88.96 8.41 89.14 8.06L89.14 8.06L89.14 8.06Q89.32 7.71 89.35 7.31L89.35 7.31L89.35 7.31Q89.50 7.21 89.65 7.13L89.65 7.13L89.65 7.13Q89.81 7.05 89.93 7.01L89.93 7.01L89.93 7.01Q90.08 6.96 90.21 6.96L90.21 6.96L90.21 6.96Q90.52 6.95 90.58 7.10L90.58 7.10L90.58 7.10Q90.62 7.21 90.57 7.42L90.57 7.42L90.57 7.42Q90.52 7.63 90.36 7.92L90.36 7.92L90.36 7.92Q90.21 8.22 89.93 8.57L89.93 8.57L89.93 8.57Q89.66 8.91 89.24 9.30ZM93.26 12.71L93.26 12.71L93.26 12.71Q92.30 12.71 91.78 12.07L91.78 12.07L91.78 12.07Q91.26 11.43 91.26 10.39L91.26 10.39L91.26 10.39Q91.26 9.67 91.47 9.03L91.47 9.03L91.47 9.03Q91.68 8.39 92.04 7.93L92.04 7.93L92.04 7.93Q92.39 7.46 92.87 7.20L92.87 7.20L92.87 7.20Q93.34 6.93 93.86 6.93L93.86 6.93L93.86 6.93Q94.36 6.93 94.72 7.29L94.72 7.29L94.72 7.29Q95.07 7.66 95.07 8.33L95.07 8.33L95.07 8.33Q95.07 8.76 94.88 9.19L94.88 9.19L94.88 9.19Q94.69 9.63 94.38 9.96L94.38 9.96L94.38 9.96Q94.08 10.29 93.71 10.50L93.71 10.50L93.71 10.50Q93.34 10.71 93.00 10.71L93.00 10.71L93.00 10.71Q92.78 10.71 92.63 10.65L92.63 10.65L92.63 10.65Q92.48 10.60 92.35 10.49L92.35 10.49L92.35 10.49Q92.39 11.27 92.70 11.57L92.70 11.57L92.70 11.57Q93.00 11.88 93.47 11.88L93.47 11.88L93.47 11.88Q93.80 11.88 94.06 11.74L94.06 11.74L94.06 11.74Q94.31 11.61 94.49 11.43L94.49 11.43L94.49 11.43Q94.66 11.25 94.77 11.07L94.77 11.07L94.77 11.07Q94.88 10.88 94.92 10.79L94.92 10.79L94.92 10.79Q94.96 10.71 95.07 10.71L95.07 10.71L95.07 10.71Q95.17 10.71 95.17 10.87L95.17 10.87L95.17 10.87Q95.17 11.02 95.07 11.33L95.07 11.33L95.07 11.33Q94.96 11.63 94.73 11.94L94.73 11.94L94.73 11.94Q94.50 12.25 94.14 12.48L94.14 12.48L94.14 12.48Q93.78 12.71 93.26 12.71ZM93.88 7.52L93.88 7.52L93.88 7.52Q93.80 7.52 93.58 7.69L93.58 7.69L93.58 7.69Q93.35 7.86 93.10 8.19L93.10 8.19L93.10 8.19Q92.85 8.52 92.63 8.98L92.63 8.98L92.63 8.98Q92.42 9.43 92.37 10.01L92.37 10.01L92.37 10.01Q93.19 9.82 93.67 9.41L93.67 9.41L93.67 9.41Q94.14 9.00 94.14 8.20L94.14 8.20L94.14 8.20Q94.14 7.81 94.05 7.66L94.05 7.66L94.05 7.66Q93.95 7.52 93.88 7.52ZM99.07 7.48L99.07 7.48L99.07 7.48Q99.07 7.33 99.25 7.25L99.25 7.25L99.25 7.25Q99.44 7.18 99.65 7.18L99.65 7.18L99.65 7.18Q99.86 7.18 100.04 7.25L100.04 7.25L100.04 7.25Q100.21 7.33 100.20 7.45L100.20 7.45L100.20 7.45Q100.19 7.55 100.17 7.83L100.17 7.83L100.17 7.83Q100.16 8.11 100.14 8.49L100.14 8.49L100.14 8.49Q100.12 8.87 100.09 9.31L100.09 9.31L100.09 9.31Q100.06 9.75 100.04 10.17L100.04 10.17L100.04 10.17Q100.02 10.58 100.02 10.94L100.02 10.94L100.02 10.94Q100.01 11.29 100.01 11.48L100.01 11.48L100.01 11.48Q100.01 11.73 100.04 11.94L100.04 11.94L100.04 11.94Q100.06 12.11 100.11 12.28L100.11 12.28L100.11 12.28Q100.15 12.46 100.23 12.52L100.23 12.52L100.23 12.52Q100.12 12.56 100.00 12.58L100.00 12.58L100.00 12.58Q99.89 12.59 99.79 12.61L99.79 12.61L99.79 12.61Q99.68 12.62 99.57 12.62L99.57 12.62L99.57 12.62Q99.34 12.62 99.18 12.52L99.18 12.52L99.18 12.52Q99.03 12.43 99.03 12.13L99.03 12.13L99.03 12.13Q99.03 11.98 99.05 11.69L99.05 11.69L99.05 11.69Q99.07 11.40 99.09 11.07L99.09 11.07L99.09 11.07Q99.00 11.36 98.86 11.66L98.86 11.66L98.86 11.66Q98.72 11.96 98.53 12.20L98.53 12.20L98.53 12.20Q98.33 12.43 98.08 12.58L98.08 12.58L98.08 12.58Q97.84 12.73 97.52 12.73L97.52 12.73L97.52 12.73Q97.17 12.73 96.87 12.58L96.87 12.58L96.87 12.58Q96.58 12.43 96.36 12.15L96.36 12.15L96.36 12.15Q96.14 11.87 96.03 11.46L96.03 11.46L96.03 11.46Q95.92 11.05 95.95 10.51L95.95 10.51L95.95 10.51Q95.95 10.10 95.96 9.64L95.96 9.64L95.96 9.64Q95.98 9.24 96.00 8.72L96.00 8.72L96.00 8.72Q96.03 8.20 96.10 7.64L96.10 7.64L96.10 7.64Q96.11 7.59 96.29 7.51L96.29 7.51L96.29 7.51Q96.47 7.42 96.69 7.37L96.69 7.37L96.69 7.37Q96.91 7.31 97.11 7.33L97.11 7.33L97.11 7.33Q97.32 7.34 97.41 7.49L97.41 7.49L97.41 7.49Q97.34 7.74 97.28 8.07L97.28 8.07L97.28 8.07Q97.21 8.41 97.15 8.76L97.15 8.76L97.15 8.76Q97.10 9.12 97.07 9.46L97.07 9.46L97.07 9.46Q97.04 9.80 97.04 10.09L97.04 10.09L97.04 10.09Q97.04 10.35 97.07 10.66L97.07 10.66L97.07 10.66Q97.10 10.96 97.17 11.23L97.17 11.23L97.17 11.23Q97.25 11.50 97.39 11.68L97.39 11.68L97.39 11.68Q97.54 11.85 97.77 11.85L97.77 11.85L97.77 11.85Q98.03 11.85 98.23 11.63L98.23 11.63L98.23 11.63Q98.42 11.40 98.56 11.05L98.56 11.05L98.56 11.05Q98.70 10.69 98.79 10.23L98.79 10.23L98.79 10.23Q98.89 9.78 98.95 9.32L98.95 9.32L98.95 9.32Q99.01 8.87 99.03 8.46L99.03 8.46L99.03 8.46Q99.05 8.04 99.07 7.75L99.07 7.75L99.07 7.48ZM103.82 7.15L103.82 7.15L103.82 7.15Q104.21 7.15 104.54 7.37L104.54 7.37L104.54 7.37Q104.86 7.59 105.10 7.94L105.10 7.94L105.10 7.94Q105.33 8.30 105.46 8.76L105.46 8.76L105.46 8.76Q105.60 9.21 105.60 9.71L105.60 9.71L105.60 9.71Q105.60 10.20 105.49 10.75L105.49 10.75L105.49 10.75Q105.38 11.29 105.15 11.76L105.15 11.76L105.15 11.76Q104.92 12.22 104.55 12.53L104.55 12.53L104.55 12.53Q104.18 12.84 103.65 12.84L103.65 12.84L103.65 12.84Q103.22 12.84 102.85 12.53L102.85 12.53L102.85 12.53Q102.47 12.22 102.27 11.76L102.27 11.76L102.27 11.76Q102.24 12.24 102.14 12.74L102.14 12.74L102.14 12.74Q102.05 13.23 102.05 13.93L102.05 13.93L102.05 13.93Q102.05 14.14 102.06 14.40L102.06 14.40L102.06 14.40Q102.07 14.66 102.10 14.92L102.10 14.92L102.10 14.92Q102.13 15.18 102.18 15.39L102.18 15.39L102.18 15.39Q102.24 15.61 102.31 15.74L102.31 15.74L102.31 15.74Q102.07 15.87 101.89 15.94L101.89 15.94L101.89 15.94Q101.71 16.01 101.57 16.04L101.57 16.04L101.57 16.04Q101.42 16.08 101.28 16.08L101.28 16.08L101.28 16.08Q101.10 16.08 101.05 15.93L101.05 15.93L101.05 15.93Q100.99 15.78 100.99 15.39L100.99 15.39L100.99 15.39Q100.99 15.15 101.01 14.69L101.01 14.69L101.01 14.69Q101.04 14.23 101.07 13.64L101.07 13.64L101.07 13.64Q101.10 13.06 101.14 12.41L101.14 12.41L101.14 12.41Q101.17 11.76 101.21 11.13L101.21 11.13L101.21 11.13Q101.24 10.50 101.26 9.96L101.26 9.96L101.26 9.96Q101.28 9.42 101.28 9.05L101.28 9.05L101.28 9.05Q101.28 8.60 101.27 8.35L101.27 8.35L101.27 8.35Q101.25 8.09 101.23 7.96L101.23 7.96L101.23 7.96Q101.21 7.83 101.19 7.78L101.19 7.78L101.19 7.78Q101.16 7.72 101.12 7.66L101.12 7.66L101.12 7.66Q101.24 7.56 101.41 7.49L101.41 7.49L101.41 7.49Q101.58 7.41 101.75 7.38L101.75 7.38L101.75 7.38Q101.92 7.34 102.07 7.36L102.07 7.36L102.07 7.36Q102.21 7.37 102.29 7.42L102.29 7.42L102.29 7.42Q102.36 7.49 102.40 7.63L102.40 7.63L102.40 7.63Q102.43 7.77 102.46 8.04L102.46 8.04L102.46 8.04Q102.72 7.68 103.05 7.42L103.05 7.42L103.05 7.42Q103.39 7.15 103.82 7.15ZM103.29 12.03L103.29 12.03L103.29 12.03Q103.54 12.03 103.76 11.80L103.76 11.80L103.76 11.80Q103.99 11.57 104.16 11.20L104.16 11.20L104.16 11.20Q104.33 10.84 104.43 10.40L104.43 10.40L104.43 10.40Q104.54 9.95 104.54 9.52L104.54 9.52L104.54 9.52Q104.54 9.04 104.45 8.73L104.45 8.73L104.45 8.73Q104.36 8.42 104.23 8.24L104.23 8.24L104.23 8.24Q104.10 8.05 103.95 7.98L103.95 7.98L103.95 7.98Q103.81 7.90 103.70 7.90L103.70 7.90L103.70 7.90Q103.44 7.90 103.21 8.11L103.21 8.11L103.21 8.11Q102.98 8.33 102.80 8.66L102.80 8.66L102.80 8.66Q102.62 9.00 102.52 9.41L102.52 9.41L102.52 9.41Q102.42 9.82 102.42 10.23L102.42 10.23L102.42 10.23Q102.42 10.61 102.49 10.94L102.49 10.94L102.49 10.94Q102.57 11.27 102.69 11.51L102.69 11.51L102.69 11.51Q102.81 11.76 102.97 11.89L102.97 11.89L102.97 11.89Q103.13 12.03 103.29 12.03Z"></path></g><!----><g data-v-423bf9ae="" id="10d25f4c-db11-4e03-91fc-c2576f844a39" transform="matrix(1.0125195980072021,0,0,1.0125195980072021,-7.665841579437256,-6.076759338378906)" stroke="none" fill="white"><path d="M88.652 84.43a386.374 386.374 0 0 0-1.85-21.634c-.084-.732-.903-1.493-1.653-.948-.358.26-.723.5-1.09.733a220.023 220.023 0 0 1-1.357-25.191c.002-.481-.41-1.042-.92-1.097.104-7.118.145-14.254-.946-21.309-.382-2.475-.523-8.16-4.245-8.138-3.201.02-9.066 6.692-10.198 9.265-.66 1.5-1.04 3.204-1.25 5.007-2.97-7.296-14.525-12.552-21.429-14.173-8.598-2.019-17.522-.308-24.334 5.429C3.917 25.397 4.952 49.02 16.718 63.989c-.055.14-.09.286-.085.438a1.205 1.205 0 0 0-.21.218c-5.761 7.864 1.7 16.066 9.253 18.561 11.416 3.772 25.514 4.218 36.711-.336.125 1.217.242 2.434.396 3.647.486 3.829 1.159 5.923 4.954 7.067 4.287 1.291 10.87 2.058 15.194.773 4.113-1.223 5.659-4.852 6.941-8.61.3-.877-.501-1.414-1.22-1.318zM71.346 13.39c.786-.832 3.547-3.566 4.562-3.898.023.19.084.367.178.535-.253.229-.378.575-.21 1.012.981 2.55.24 5.185-1.669 7.09-.935.934-4.823 3.812-6.376 2.75.37-2.792 1.413-5.264 3.515-7.489zm-3.833 23.378c.05-4.526.076-9.055.148-13.581 2.327.514 5.499-1.384 7.066-2.611 2.548-1.996 4.11-5.066 3.737-8.205 1.939 6.158 1.235 20.256 1.122 24.226-3.515.558-8.895 1.374-12.095.271.004-.036.021-.061.022-.1zm.509 2.5c2.753.45 10.196-1.688 12.009-.146 1.429 1.216.687 9.86.804 11.896.245 4.253.645 8.487 1.14 12.717-5.007 2.424-10.642 2.62-15.804.496.036-.11.07-.22.069-.357l-.253-25.144c.581.253 1.226.407 2.035.539zm-2.784-5.824c.032.711.06 1.41.072 2.081-.665-.29-1.55.224-1.542 1.008l.105 10.47a1.163 1.163 0 0 0-.508-.04 296.614 296.614 0 0 0-41.087 9.016 1.132 1.132 0 0 0-.088-.357c-5.946-12.654-9.843-34.143 8.05-39.24 3.35-.954 6.766-1.076 10.114-.552L29.315 37.278c-.646 1.255 1.25 2.368 1.897 1.11L42.528 16.4c.022-.042.02-.082.036-.124.855.207 1.701.467 2.541.752a282.719 282.719 0 0 1-10.95 27.25c-.59 1.273 1.303 2.39 1.898 1.108a288.34 288.34 0 0 0 11.103-27.585c7.423 3.098 13.958 9 17.863 15.408.062.102.142.165.219.236zm-46.05-17.938c6.463-6.292 15.207-8.47 23.942-6.443 6.34 1.47 18.45 6.786 20.32 13.851.202.764.947.904 1.507.653-.074 1.892-.014 3.842.076 5.755-8.46-11.386-24.782-20.287-38.59-13.892-16.328 7.563-12.214 28.396-6.15 41.3.206.44.566.582.924.547.087.595.581 1.132 1.325.911a296.67 296.67 0 0 1 41.352-9.097l.047 4.617a1.119 1.119 0 0 0-.614-.09c-15.094 2.228-29.973 5.412-44.685 9.432a1.177 1.177 0 0 0-.212-.407c-10.661-13.379-12.162-34.556.759-47.137zm42.74 65.198c-8.796 3.613-18.14 3.587-27.417 2.16-7.427-1.14-24.107-6.306-16.191-17.111.096-.132.153-.262.182-.39a406.04 406.04 0 0 1 5.526-1.478c-.645 3.05-1.4 5.58.598 8.44 2.01 2.875 5.37 4.03 8.644 4.76 9.219 2.056 19.124 2.874 28.1-.518a1.11 1.11 0 0 0 .45-.32c.096 1.464.205 2.927.335 4.389a1.189 1.189 0 0 0-.226.068zm-.238-17.278c-.21.177-.35.443-.343.803.058 3.456.181 6.916.38 10.372-.231-.203-.546-.302-.941-.152-5.893 2.227-11.956 2.554-18.17 1.908-2.92-.303-5.893-.75-8.762-1.39-1.725-.386-3.336-.753-4.797-1.846-1.975-.572-2.794-1.981-2.457-4.228-.805-1.687-.911-3.38-.319-5.08.036-.18.027-.345-.01-.495 12.415-3.153 24.95-5.708 37.64-7.581.02-.003.03-.015.05-.019l.075 7.48c-.26-.145-.524-.282-.782-.44-.712-.435-1.375.05-1.564.668zm20.657 28.811c-1.471.526-3.535.332-5.1.307-4.784-.077-10.784.003-12.17-5.444-1.713-6.732-1.451-14.629-1.521-21.652 6.221 3.217 13.42 3.259 19.595.17.468.054.937-.13 1.08-.581.193-.11.388-.213.577-.33a386.282 386.282 0 0 1 1.815 22.603c.01.188.062.347.137.486-.847 1.92-2.04 3.593-4.413 4.441z"></path><path d="M32.549 69.001c-1.414 0-1.416 2.197 0 2.197 1.414 0 1.416-2.197 0-2.197zM38.408 71.564c-1.414 0-1.416 2.197 0 2.197 1.413 0 1.415-2.197 0-2.197zM37.675 66.804c-1.413 0-1.416 2.197 0 2.197 1.414 0 1.416-2.197 0-2.197zM44.632 70.466c-1.414 0-1.416 2.197 0 2.197 1.414 0 1.416-2.197 0-2.197zM51.59 68.269c-1.415 0-1.417 2.197 0 2.197 1.413 0 1.415-2.197 0-2.197z"></path></g><!----><g data-v-423bf9ae="" id="e7ef7db8-c5b2-48a5-9e8d-c4be7d920e06" fill="white" transform="matrix(2.383195400238037,0,0,2.383195400238037,102.46837615966797,52.13545227050781)"><path d="M0.28 3.72L0.28 3.72L0.28 3.72Q0.28 3.51 0.41 3.51L0.41 3.51L0.41 3.51Q0.45 3.51 0.59 3.52L0.59 3.52L0.59 3.52Q0.73 3.53 0.97 3.53L0.97 3.53L0.97 3.53Q1.25 3.53 2.08 3.52L2.08 3.52L2.08 3.52Q2.91 3.51 3.01 3.51L3.01 3.51L3.01 3.51Q3.33 3.51 3.82 3.49L3.82 3.49L3.82 3.49Q4.31 3.47 4.55 3.47L4.55 3.47L4.55 3.47Q5.82 3.47 6.68 4.08L6.68 4.08L6.68 4.08Q7.53 4.69 7.53 5.81L7.53 5.81L7.53 5.81Q7.53 6.22 7.38 6.57L7.38 6.57L7.38 6.57Q7.24 6.93 7.04 7.15L7.04 7.15L7.04 7.15Q6.83 7.38 6.63 7.54L6.63 7.54L6.63 7.54Q6.43 7.70 6.28 7.79L6.28 7.79L6.28 7.79Q6.13 7.88 6.13 7.90L6.13 7.90L6.13 7.90Q6.13 7.94 6.37 8.00L6.37 8.00L6.37 8.00Q6.61 8.06 6.94 8.21L6.94 8.21L6.94 8.21Q7.28 8.36 7.61 8.61L7.61 8.61L7.61 8.61Q7.94 8.86 8.18 9.36L8.18 9.36L8.18 9.36Q8.41 9.86 8.41 10.53L8.41 10.53L8.41 10.53Q8.41 11.13 8.06 11.82L8.06 11.82L8.06 11.82Q7.71 12.50 7.24 12.82L7.24 12.82L7.24 12.82Q6.62 13.26 6.09 13.40L6.09 13.40L6.09 13.40Q5.56 13.55 4.80 13.55L4.80 13.55L4.80 13.55Q4.24 13.55 3.32 13.47L3.32 13.47L3.32 13.47Q2.39 13.40 2.30 13.40L2.30 13.40L2.30 13.40Q2.14 13.40 1.74 13.43L1.74 13.43L1.74 13.43Q1.34 13.45 1.09 13.45L1.09 13.45L0.90 13.45L0.90 13.45Q0.60 13.45 0.60 13.24L0.60 13.24L0.60 13.24Q0.60 13.05 0.76 13.05L0.76 13.05L0.76 13.05Q0.84 13.05 0.94 13.04L0.94 13.04L0.94 13.04Q1.04 13.03 1.08 13.03L1.08 13.03L1.08 13.03Q1.20 13.03 1.32 12.94L1.32 12.94L1.32 12.94Q1.44 12.85 1.57 12.54L1.57 12.54L1.57 12.54Q1.69 12.22 1.71 11.73L1.71 11.73L1.71 11.73Q1.75 10.82 1.75 7.36L1.75 7.36L1.75 4.98L1.75 4.98Q1.75 4.89 1.72 4.75L1.72 4.75L1.72 4.75Q1.68 4.62 1.57 4.40L1.57 4.40L1.57 4.40Q1.47 4.19 1.20 4.04L1.20 4.04L1.20 4.04Q0.92 3.89 0.52 3.89L0.52 3.89L0.52 3.89Q0.28 3.89 0.28 3.72ZM2.81 12.15L2.81 12.15L2.81 12.15Q2.81 12.99 4.19 12.99L4.19 12.99L4.51 12.99L4.51 12.99Q5.26 12.99 5.71 12.92L5.71 12.92L5.71 12.92Q6.37 12.81 6.80 12.24L6.80 12.24L6.80 12.24Q7.22 11.66 7.22 10.86L7.22 10.86L7.22 10.86Q7.22 10.18 6.97 9.68L6.97 9.68L6.97 9.68Q6.72 9.18 6.40 8.93L6.40 8.93L6.40 8.93Q6.08 8.68 5.63 8.54L5.63 8.54L5.63 8.54Q5.19 8.40 4.95 8.37L4.95 8.37L4.95 8.37Q4.70 8.34 4.48 8.34L4.48 8.34L4.48 8.34Q4.03 8.34 3.75 8.34L3.75 8.34L3.75 8.34Q3.46 8.33 3.38 8.33L3.38 8.33L3.38 8.33Q3.30 8.33 3.25 8.32L3.25 8.32L3.25 8.32Q3.21 8.32 3.18 8.32L3.18 8.32L3.18 8.32Q3.05 8.32 3.00 8.35L3.00 8.35L3.00 8.35Q2.94 8.39 2.89 8.62L2.89 8.62L2.89 8.62Q2.84 8.85 2.83 9.28L2.83 9.28L2.83 9.28Q2.83 9.72 2.83 10.58L2.83 10.58L2.83 10.70L2.83 10.70Q2.83 11.21 2.83 11.54L2.83 11.54L2.83 11.54Q2.83 11.86 2.82 11.99L2.82 11.99L2.82 11.99Q2.81 12.12 2.81 12.15ZM2.90 5.40L2.90 5.81L2.90 5.81Q2.90 6.51 2.91 6.90L2.91 6.90L2.91 6.90Q2.91 7.29 2.94 7.50L2.94 7.50L2.94 7.50Q2.97 7.71 3.00 7.77L3.00 7.77L3.00 7.77Q3.02 7.83 3.08 7.83L3.08 7.83L3.08 7.83Q3.47 7.87 3.79 7.87L3.79 7.87L4.69 7.87L4.69 7.87Q5.57 7.87 6.01 7.41L6.01 7.41L6.01 7.41Q6.45 6.94 6.45 6.22L6.45 6.22L6.45 6.22Q6.45 5.43 5.72 4.70L5.72 4.70L5.72 4.70Q4.98 3.96 3.63 3.96L3.63 3.96L3.63 3.96Q3.19 3.96 3.04 4.22L3.04 4.22L3.04 4.22Q2.90 4.48 2.90 5.40L2.90 5.40ZM15.69 3.81L15.69 3.81L15.69 3.81Q15.69 3.65 15.86 3.61L15.86 3.61L15.86 3.61Q16.02 3.57 16.56 3.57L16.56 3.57L16.56 3.57Q16.65 3.57 16.95 3.58L16.95 3.58L16.95 3.58Q17.25 3.60 17.37 3.60L17.37 3.60L17.37 3.60Q17.53 3.60 17.94 3.59L17.94 3.59L17.94 3.59Q18.35 3.58 18.56 3.58L18.56 3.58L18.56 3.58Q19.26 3.58 19.26 3.75L19.26 3.75L19.26 3.75Q19.26 3.91 18.97 4.01L18.97 4.01L18.97 4.01Q18.68 4.12 18.68 4.24L18.68 4.24L18.68 4.24Q18.68 4.38 18.77 4.61L18.77 4.61L18.77 4.61Q18.86 4.83 18.95 4.97L18.95 4.97L18.95 4.97Q19.04 5.11 19.22 5.38L19.22 5.38L19.22 5.38Q19.40 5.64 19.43 5.70L19.43 5.70L19.43 5.70Q19.91 6.45 20.42 7.14L20.42 7.14L20.42 7.14Q20.93 7.83 21 7.83L21 7.83L21 7.83Q21.08 7.83 21.21 7.66L21.21 7.66L21.21 7.66Q21.34 7.50 21.56 7.13L21.56 7.13L21.56 7.13Q21.78 6.75 21.94 6.52L21.94 6.52L21.94 6.52Q21.98 6.45 22.14 6.22L22.14 6.22L22.14 6.22Q22.30 5.98 22.37 5.88L22.37 5.88L22.37 5.88Q22.43 5.78 22.55 5.58L22.55 5.58L22.55 5.58Q22.68 5.38 22.74 5.27L22.74 5.27L22.74 5.27Q22.79 5.17 22.87 5.02L22.87 5.02L22.87 5.02Q22.95 4.87 22.97 4.77L22.97 4.77L22.97 4.77Q23.00 4.68 23.00 4.59L23.00 4.59L23.00 4.59Q23.00 4.14 22.53 4.03L22.53 4.03L22.53 4.03Q22.47 4.02 22.37 4.00L22.37 4.00L22.37 4.00Q22.26 3.99 22.21 3.98L22.21 3.98L22.21 3.98Q22.16 3.96 22.09 3.93L22.09 3.93L22.09 3.93Q22.02 3.91 21.99 3.86L21.99 3.86L21.99 3.86Q21.97 3.81 21.97 3.74L21.97 3.74L21.97 3.74Q21.97 3.57 22.36 3.57L22.36 3.57L22.36 3.57Q22.43 3.57 22.62 3.58L22.62 3.58L22.62 3.58Q22.81 3.58 22.93 3.58L22.93 3.58L22.93 3.58Q23.25 3.58 23.71 3.59L23.71 3.59L23.71 3.59Q24.16 3.60 24.42 3.60L24.42 3.60L24.42 3.60Q25.10 3.60 25.10 3.81L25.10 3.81L25.10 3.81Q25.10 3.86 25.02 3.91L25.02 3.91L25.02 3.91Q24.93 3.95 24.78 4.02L24.78 4.02L24.78 4.02Q24.63 4.09 24.50 4.19L24.50 4.19L24.50 4.19Q23.93 4.63 22.81 6.31L22.81 6.31L22.81 6.31Q21.70 7.99 21.55 8.19L21.55 8.19L21.55 8.19Q21.32 8.47 21.27 8.81L21.27 8.81L21.27 8.81Q21.21 9.14 21.21 9.95L21.21 9.95L21.21 9.95Q21.21 10.14 21.22 10.73L21.22 10.73L21.22 10.73Q21.22 11.33 21.22 11.58L21.22 11.58L21.22 11.91L21.22 11.91Q21.22 12.38 21.38 12.64L21.38 12.64L21.38 12.64Q21.55 12.91 21.69 12.96L21.69 12.96L21.69 12.96Q21.83 13.01 21.97 13.01L21.97 13.01L21.97 13.01Q21.99 13.01 22.11 13.01L22.11 13.01L22.11 13.01Q22.22 13.02 22.25 13.02L22.25 13.02L22.25 13.02Q22.34 13.02 22.40 13.08L22.40 13.08L22.40 13.08Q22.46 13.15 22.46 13.22L22.46 13.22L22.46 13.22Q22.46 13.36 22.39 13.40L22.39 13.40L22.39 13.40Q22.32 13.44 22.12 13.44L22.12 13.44L22.12 13.44Q22.05 13.44 21.51 13.43L21.51 13.43L21.51 13.43Q20.97 13.43 20.72 13.43L20.72 13.43L20.72 13.43Q20.23 13.43 19.82 13.45L19.82 13.45L19.82 13.45Q19.42 13.48 19.18 13.48L19.18 13.48L19.18 13.48Q18.79 13.48 18.79 13.33L18.79 13.33L18.79 13.33Q18.79 13.20 18.86 13.15L18.86 13.15L18.86 13.15Q18.94 13.10 19.12 13.09L19.12 13.09L19.12 13.09Q19.31 13.08 19.39 13.05L19.39 13.05L19.39 13.05Q19.98 12.87 19.98 12.19L19.98 12.19L19.98 12.19Q19.98 12.11 19.98 11.92L19.98 11.92L19.98 11.92Q19.99 11.73 20.00 11.12L20.00 11.12L20.00 11.12Q20.01 10.50 20.01 9.35L20.01 9.35L20.01 9.35Q20.01 9.13 19.97 8.97L19.97 8.97L19.97 8.97Q19.94 8.81 19.89 8.65L19.89 8.65L19.89 8.65Q19.84 8.50 19.65 8.20L19.65 8.20L19.65 8.20Q19.46 7.91 19.28 7.64L19.28 7.64L19.28 7.64Q19.10 7.36 18.66 6.72L18.66 6.72L18.66 6.72Q18.21 6.08 17.81 5.46L17.81 5.46L17.81 5.46Q17.37 4.80 17.02 4.46L17.02 4.46L17.02 4.46Q16.67 4.12 16.48 4.05L16.48 4.05L16.48 4.05Q16.30 3.99 16.04 3.99L16.04 3.99L16.04 3.99Q15.69 3.99 15.69 3.81ZM42.64 3.64L42.64 3.64L42.64 3.64Q42.64 3.51 42.76 3.49L42.76 3.49L42.76 3.49Q42.88 3.47 43.36 3.47L43.36 3.47L44.58 3.47L44.58 3.47Q44.93 3.47 45.86 3.44L45.86 3.44L45.86 3.44Q46.80 3.42 47.31 3.42L47.31 3.42L47.31 3.42Q48.27 3.42 49.24 3.71L49.24 3.71L49.24 3.71Q50.20 4.00 51.02 4.56L51.02 4.56L51.02 4.56Q51.83 5.11 52.33 6.00L52.33 6.00L52.33 6.00Q52.84 6.89 52.84 7.98L52.84 7.98L52.84 7.98Q52.84 8.96 52.70 9.68L52.70 9.68L52.70 9.68Q52.57 10.40 52.26 10.93L52.26 10.93L52.26 10.93Q51.95 11.45 51.65 11.78L51.65 11.78L51.65 11.78Q51.34 12.11 50.81 12.56L50.81 12.56L50.81 12.56Q50.39 12.89 49.59 13.19L49.59 13.19L49.59 13.19Q48.79 13.48 47.95 13.48L47.95 13.48L47.95 13.48Q47.87 13.48 46.52 13.45L46.52 13.45L46.52 13.45Q45.18 13.41 44.59 13.41L44.59 13.41L44.59 13.41Q44.10 13.41 43.68 13.45L43.68 13.45L43.68 13.45Q43.26 13.48 43.19 13.48L43.19 13.48L43.19 13.48Q42.85 13.48 42.85 13.30L42.85 13.30L42.85 13.30Q42.85 13.19 42.90 13.14L42.90 13.14L42.90 13.14Q42.95 13.09 43.11 13.05L43.11 13.05L43.11 13.05Q43.27 13.01 43.34 12.98L43.34 12.98L43.34 12.98Q43.57 12.88 43.76 12.61L43.76 12.61L43.76 12.61Q43.95 12.33 43.95 12.07L43.95 12.07L43.95 12.07Q43.95 11.28 43.95 10.07L43.95 10.07L43.95 10.07Q43.96 8.85 43.96 8.27L43.96 8.27L43.96 8.27Q43.96 7.77 43.95 6.70L43.95 6.70L43.95 6.70Q43.95 5.63 43.95 4.72L43.95 4.72L43.95 4.72Q43.95 4.48 43.71 4.23L43.71 4.23L43.71 4.23Q43.48 3.99 43.20 3.98L43.20 3.98L43.20 3.98Q43.01 3.96 42.92 3.95L42.92 3.95L42.92 3.95Q42.83 3.93 42.73 3.86L42.73 3.86L42.73 3.86Q42.64 3.78 42.64 3.64ZM45.12 11.47L45.12 11.47L45.12 11.47Q45.12 11.73 45.13 11.90L45.13 11.90L45.13 11.90Q45.14 12.07 45.18 12.21L45.18 12.21L45.18 12.21Q45.23 12.35 45.26 12.40L45.26 12.40L45.26 12.40Q45.29 12.46 45.43 12.53L45.43 12.53L45.43 12.53Q45.57 12.60 45.65 12.62L45.65 12.62L45.65 12.62Q45.72 12.64 45.98 12.71L45.98 12.71L45.98 12.71Q46.23 12.78 46.40 12.82L46.40 12.82L46.40 12.82Q46.89 12.96 47.42 12.96L47.42 12.96L47.70 12.96L47.70 12.96Q48.65 12.96 49.32 12.69L49.32 12.69L49.32 12.69Q49.99 12.42 50.61 11.83L50.61 11.83L50.61 11.83Q51.65 10.84 51.65 8.61L51.65 8.61L51.65 8.61Q51.65 7.49 51.20 6.58L51.20 6.58L51.20 6.58Q50.76 5.67 50.05 5.13L50.05 5.13L50.05 5.13Q49.34 4.59 48.51 4.30L48.51 4.30L48.51 4.30Q47.68 4.02 46.84 4.02L46.84 4.02L46.84 4.02Q46.47 4.02 46.29 4.02L46.29 4.02L46.29 4.02Q46.12 4.02 45.88 4.05L45.88 4.05L45.88 4.05Q45.65 4.09 45.58 4.11L45.58 4.11L45.58 4.11Q45.50 4.13 45.39 4.25L45.39 4.25L45.39 4.25Q45.28 4.37 45.25 4.45L45.25 4.45L45.25 4.45Q45.23 4.54 45.20 4.78L45.20 4.78L45.20 4.78Q45.16 5.03 45.16 5.21L45.16 5.21L45.16 5.21Q45.16 5.39 45.16 5.80L45.16 5.80L45.16 5.80Q45.16 6.10 45.15 7.24L45.15 7.24L45.15 7.24Q45.14 8.39 45.14 8.48L45.14 8.48L45.14 8.48Q45.14 9.32 45.13 10.30L45.13 10.30L45.13 10.30Q45.12 11.28 45.12 11.47ZM60.05 13.33L60.05 13.33L60.05 13.33Q60.05 13.13 60.26 13.06L60.26 13.06L60.26 13.06Q60.70 12.89 61.04 12.31L61.04 12.31L61.04 12.31Q61.38 11.73 62.71 8.83L62.71 8.83L62.71 8.83Q64.08 5.87 65.13 3.63L65.13 3.63L65.13 3.63Q65.23 3.42 65.30 3.36L65.30 3.36L65.30 3.36Q65.38 3.30 65.55 3.30L65.55 3.30L65.55 3.30Q65.67 3.30 65.72 3.36L65.72 3.36L65.72 3.36Q65.76 3.42 65.90 3.82L65.90 3.82L65.90 3.82Q65.98 4.06 66.05 4.23L66.05 4.23L66.05 4.23Q66.11 4.40 66.25 4.77L66.25 4.77L66.25 4.77Q66.39 5.15 66.56 5.56L66.56 5.56L66.56 5.56Q67.00 6.66 68.10 9.22L68.10 9.22L68.10 9.22Q69.20 11.77 69.30 11.98L69.30 11.98L69.30 11.98Q69.54 12.46 69.83 12.71L69.83 12.71L69.83 12.71Q70.13 12.95 70.34 12.97L70.34 12.97L70.34 12.97Q70.56 12.99 70.71 13.04L70.71 13.04L70.71 13.04Q70.85 13.09 70.85 13.26L70.85 13.26L70.85 13.26Q70.85 13.47 70.48 13.47L70.48 13.47L70.48 13.47Q70.32 13.47 69.87 13.43L69.87 13.43L69.87 13.43Q69.43 13.38 69.22 13.38L69.22 13.38L69.22 13.38Q68.95 13.38 68.53 13.41L68.53 13.41L68.53 13.41Q68.11 13.44 67.91 13.44L67.91 13.44L67.91 13.44Q67.48 13.44 67.36 13.40L67.36 13.40L67.36 13.40Q67.24 13.37 67.24 13.24L67.24 13.24L67.24 13.24Q67.24 13.15 67.35 13.08L67.35 13.08L67.35 13.08Q67.47 13.02 67.59 13.00L67.59 13.00L67.59 13.00Q67.72 12.98 67.83 12.87L67.83 12.87L67.83 12.87Q67.94 12.77 67.94 12.59L67.94 12.59L67.94 12.59Q67.94 12.28 67.59 11.33L67.59 11.33L67.59 11.33Q67.24 10.37 67.00 9.93L67.00 9.93L67.00 9.93Q66.88 9.69 66.43 9.69L66.43 9.69L66.43 9.69Q66.36 9.69 65.81 9.70L65.81 9.70L65.81 9.70Q65.27 9.72 64.74 9.72L64.74 9.72L63.99 9.72L63.99 9.72Q63.36 9.72 63.20 9.79L63.20 9.79L63.20 9.79Q63.04 9.86 62.92 10.12L62.92 10.12L62.92 10.12Q62.83 10.30 62.64 10.70L62.64 10.70L62.64 10.70Q62.44 11.10 62.37 11.26L62.37 11.26L62.37 11.26Q62.30 11.41 62.20 11.65L62.20 11.65L62.20 11.65Q62.09 11.90 62.05 12.05L62.05 12.05L62.05 12.05Q62.02 12.19 62.02 12.31L62.02 12.31L62.02 12.31Q62.02 12.63 62.18 12.80L62.18 12.80L62.18 12.80Q62.34 12.96 62.54 12.98L62.54 12.98L62.54 12.98Q62.73 13.01 62.89 13.06L62.89 13.06L62.89 13.06Q63.06 13.12 63.06 13.26L63.06 13.26L63.06 13.26Q63.06 13.36 63.01 13.40L63.01 13.40L63.01 13.40Q62.97 13.45 62.82 13.45L62.82 13.45L62.82 13.45Q62.73 13.45 62.34 13.45L62.34 13.45L62.34 13.45Q61.94 13.44 61.66 13.44L61.66 13.44L61.66 13.44Q61.35 13.44 60.96 13.47L60.96 13.47L60.96 13.47Q60.58 13.50 60.45 13.50L60.45 13.50L60.45 13.50Q60.05 13.50 60.05 13.33ZM63.56 8.71L63.56 8.71L63.56 8.71Q63.56 8.89 63.69 8.93L63.69 8.93L63.69 8.93Q63.81 8.97 64.27 8.97L64.27 8.97L64.71 8.97L66.04 8.96L66.04 8.96Q66.58 8.96 66.58 8.74L66.58 8.74L66.58 8.74Q66.58 8.55 65.90 7.01L65.90 7.01L65.90 7.01Q65.21 5.46 65.03 5.46L65.03 5.46L65.03 5.46Q64.90 5.46 64.23 7.01L64.23 7.01L64.23 7.01Q63.56 8.55 63.56 8.71ZM78.41 3.77L78.41 3.77L78.41 3.77Q78.41 3.68 78.51 3.60L78.51 3.60L78.51 3.60Q78.61 3.53 78.76 3.53L78.76 3.53L78.76 3.53Q78.85 3.53 79.04 3.54L79.04 3.54L79.04 3.54Q79.24 3.54 79.30 3.54L79.30 3.54L79.30 3.54Q79.51 3.54 79.69 3.53L79.69 3.53L79.69 3.53Q79.87 3.51 79.98 3.51L79.98 3.51L79.98 3.51Q80.11 3.51 80.28 3.59L80.28 3.59L80.28 3.59Q80.44 3.67 80.47 3.75L80.47 3.75L80.47 3.75Q80.50 3.79 80.63 3.94L80.63 3.94L80.63 3.94Q80.75 4.09 80.96 4.33L80.96 4.33L80.96 4.33Q81.17 4.56 81.34 4.79L81.34 4.79L81.34 4.79Q83.24 7.27 86.44 10.77L86.44 10.77L86.44 10.77Q86.52 10.86 86.64 10.99L86.64 10.99L86.64 10.99Q86.76 11.12 86.81 11.18L86.81 11.18L86.81 11.18Q86.86 11.24 86.91 11.30L86.91 11.30L86.91 11.30Q86.97 11.35 87.00 11.38L87.00 11.38L87.00 11.38Q87.04 11.40 87.07 11.40L87.07 11.40L87.07 11.40Q87.21 11.40 87.21 10.53L87.21 10.53L87.21 8.89L87.21 8.89Q87.21 7.95 87.20 7.31L87.20 7.31L87.20 7.31Q87.19 6.66 87.19 6.38L87.19 6.38L87.19 6.38Q87.18 6.09 87.18 6.02L87.18 6.02L87.18 5.92L87.18 5.92Q87.18 5.45 87.11 5.11L87.11 5.11L87.11 5.11Q87.05 4.77 86.97 4.59L86.97 4.59L86.97 4.59Q86.88 4.41 86.72 4.28L86.72 4.28L86.72 4.28Q86.56 4.16 86.45 4.12L86.45 4.12L86.45 4.12Q86.34 4.09 86.13 4.05L86.13 4.05L86.13 4.05Q85.92 4.00 85.83 3.98L85.83 3.98L85.83 3.98Q85.55 3.89 85.55 3.74L85.55 3.74L85.55 3.74Q85.55 3.53 85.82 3.53L85.82 3.53L85.82 3.53Q85.90 3.53 86.49 3.54L86.49 3.54L86.49 3.54Q87.08 3.54 87.15 3.54L87.15 3.54L87.15 3.54Q87.49 3.54 87.90 3.53L87.90 3.53L87.90 3.53Q88.31 3.51 88.41 3.51L88.41 3.51L88.41 3.51Q88.65 3.51 88.74 3.56L88.74 3.56L88.74 3.56Q88.83 3.61 88.83 3.75L88.83 3.75L88.83 3.75Q88.83 3.81 88.75 3.86L88.75 3.86L88.75 3.86Q88.68 3.91 88.59 3.94L88.59 3.94L88.59 3.94Q88.51 3.98 88.42 4.00L88.42 4.00L88.34 4.03L88.34 4.03Q87.88 4.28 87.88 5.61L87.88 5.61L87.88 6.15L87.88 6.15Q87.88 7.21 87.80 9.83L87.80 9.83L87.80 9.83Q87.72 12.46 87.72 13.08L87.72 13.08L87.72 13.36L87.72 13.36Q87.72 13.68 87.53 13.68L87.53 13.68L87.53 13.68Q87.40 13.68 87.30 13.58L87.30 13.58L87.30 13.58Q82.66 8.19 81.75 7.17L81.75 7.17L81.75 7.17Q80.85 6.16 80.75 6.16L80.75 6.16L80.75 6.16Q80.61 6.16 80.61 7.11L80.61 7.11L80.61 7.11Q80.61 8.44 80.56 9.97L80.56 9.97L80.56 9.97Q80.50 11.51 80.50 11.65L80.50 11.65L80.50 11.65Q80.50 12.28 80.72 12.61L80.72 12.61L80.72 12.61Q80.93 12.94 81.19 12.98L81.19 12.98L81.19 12.98Q81.44 13.02 81.66 13.07L81.66 13.07L81.66 13.07Q81.87 13.12 81.87 13.26L81.87 13.26L81.87 13.26Q81.87 13.41 81.82 13.45L81.82 13.45L81.82 13.45Q81.77 13.50 81.65 13.50L81.65 13.50L81.65 13.50Q81.55 13.50 81.21 13.48L81.21 13.48L81.21 13.48Q80.86 13.47 80.15 13.47L80.15 13.47L80.15 13.47Q80.02 13.47 79.63 13.48L79.63 13.48L79.63 13.48Q79.24 13.50 78.96 13.50L78.96 13.50L78.96 13.50Q78.65 13.50 78.65 13.27L78.65 13.27L78.65 13.27Q78.65 13.15 78.83 13.11L78.83 13.11L78.83 13.11Q79.02 13.08 79.28 12.89L79.28 12.89L79.28 12.89Q79.55 12.71 79.69 12.21L79.69 12.21L79.69 12.21Q79.77 11.89 79.90 9.60L79.90 9.60L79.90 9.60Q80.02 7.32 80.02 6.45L80.02 6.45L80.02 6.45Q80.02 5.25 79.69 4.65L79.69 4.65L79.69 4.65Q79.35 4.06 78.60 3.98L78.60 3.98L78.60 3.98Q78.41 3.96 78.41 3.77ZM96.59 3.71L96.59 3.71L96.59 3.71Q96.59 3.50 96.98 3.50L96.98 3.50L96.98 3.50Q97.12 3.50 97.62 3.53L97.62 3.53L97.62 3.53Q98.13 3.56 98.56 3.56L98.56 3.56L98.56 3.56Q98.83 3.56 99.07 3.54L99.07 3.54L99.07 3.54Q99.32 3.53 99.79 3.53L99.79 3.53L99.79 3.53Q100.17 3.53 100.17 3.72L100.17 3.72L100.17 3.72Q100.17 3.84 99.53 4.10L99.53 4.10L99.53 4.10Q99.08 4.28 99.08 5.71L99.08 5.71L99.08 5.71Q99.08 7.60 99.06 9.05L99.06 9.05L99.06 9.05Q99.04 10.50 99.04 10.89L99.04 10.89L99.04 10.89Q99.04 12.07 99.39 12.59L99.39 12.59L99.39 12.59Q99.69 13.02 100.06 13.02L100.06 13.02L100.06 13.02Q100.09 13.02 100.20 13.03L100.20 13.03L100.20 13.03Q100.31 13.03 100.34 13.03L100.34 13.03L100.34 13.03Q100.44 13.03 100.53 13.08L100.53 13.08L100.53 13.08Q100.63 13.13 100.63 13.19L100.63 13.19L100.63 13.19Q100.63 13.34 100.55 13.39L100.55 13.39L100.55 13.39Q100.48 13.44 100.28 13.44L100.28 13.44L100.28 13.44Q99.86 13.44 99.50 13.41L99.50 13.41L99.50 13.41Q99.15 13.38 98.95 13.38L98.95 13.38L98.95 13.38Q98.56 13.38 98.10 13.42L98.10 13.42L98.10 13.42Q97.64 13.45 97.41 13.45L97.41 13.45L97.41 13.45Q96.78 13.45 96.78 13.24L96.78 13.24L96.78 13.24Q96.78 13.12 96.91 13.07L96.91 13.07L96.91 13.07Q97.05 13.02 97.22 13.00L97.22 13.00L97.22 13.00Q97.38 12.98 97.57 12.82L97.57 12.82L97.57 12.82Q97.75 12.66 97.82 12.35L97.82 12.35L97.82 12.35Q97.85 12.25 97.91 10.76L97.91 10.76L97.91 10.76Q97.97 9.27 97.97 8.61L97.97 8.61L97.97 7.81L97.97 7.81Q97.97 7.63 97.98 7.12L97.98 7.12L97.98 7.12Q97.99 6.61 97.99 6.30L97.99 6.30L97.99 5.66L97.99 5.66Q97.99 5.04 97.93 4.63L97.93 4.63L97.93 4.63Q97.89 4.30 97.56 4.12L97.56 4.12L97.56 4.12Q97.23 3.93 96.88 3.92L96.88 3.92L96.88 3.92Q96.59 3.91 96.59 3.71ZM108.18 3.65L108.18 3.65L108.18 3.65Q108.18 3.46 108.57 3.46L108.57 3.46L108.57 3.46Q108.63 3.46 108.75 3.47L108.75 3.47L108.75 3.47Q108.88 3.49 108.95 3.49L108.95 3.49L108.95 3.49Q108.99 3.49 110.26 3.52L110.26 3.52L110.26 3.52Q111.54 3.56 112.36 3.56L112.36 3.56L112.36 3.56Q112.66 3.56 113.81 3.53L113.81 3.53L113.81 3.53Q114.97 3.50 115.16 3.50L115.16 3.50L115.16 3.50Q115.43 3.50 115.43 3.82L115.43 3.82L115.43 3.82Q115.43 3.91 115.35 4.38L115.35 4.38L115.35 4.38Q115.26 4.84 115.26 5.25L115.26 5.25L115.26 5.25Q115.26 5.38 115.19 5.47L115.19 5.47L115.19 5.47Q115.12 5.56 115.04 5.56L115.04 5.56L115.04 5.56Q114.83 5.56 114.83 5.26L114.83 5.26L114.83 5.26Q114.83 4.89 114.59 4.58L114.59 4.58L114.59 4.58Q114.35 4.27 114.00 4.26L114.00 4.26L114.00 4.26Q112.74 4.16 112.07 4.16L112.07 4.16L111.71 4.16L111.71 4.16Q110.98 4.16 110.86 4.26L110.86 4.26L110.86 4.26Q110.74 4.37 110.71 5.01L110.71 5.01L110.71 5.01Q110.66 6.02 110.66 7.35L110.66 7.35L110.66 7.35Q110.66 8.05 110.92 8.06L110.92 8.06L111.27 8.06L111.86 8.06L112.29 8.06L112.29 8.06Q113.13 8.06 113.41 8.01L113.41 8.01L113.41 8.01Q113.69 7.95 113.92 7.80L113.92 7.80L113.92 7.80Q114.18 7.62 114.24 7.28L114.24 7.28L114.24 7.28Q114.28 7.04 114.44 7.04L114.44 7.04L114.44 7.04Q114.56 7.04 114.59 7.08L114.59 7.08L114.59 7.08Q114.62 7.13 114.62 7.27L114.62 7.27L114.62 7.27Q114.62 7.36 114.56 7.91L114.56 7.91L114.56 7.91Q114.51 8.46 114.51 8.74L114.51 8.74L114.51 8.74Q114.51 9.00 114.53 9.24L114.53 9.24L114.53 9.24Q114.55 9.48 114.55 9.59L114.55 9.59L114.55 9.59Q114.55 9.94 114.45 9.94L114.45 9.94L114.45 9.94Q114.24 9.94 114.14 9.60L114.14 9.60L114.14 9.60Q113.95 9.02 113.79 8.92L113.79 8.92L113.79 8.92Q113.50 8.72 112.45 8.72L112.45 8.72L112.45 8.72Q112.03 8.72 111.77 8.72L111.77 8.72L111.77 8.72Q111.51 8.72 111.43 8.71L111.43 8.71L111.43 8.71Q111.36 8.71 111.31 8.71L111.31 8.71L111.31 8.71Q111.26 8.71 111.22 8.71L111.22 8.71L111.22 8.71Q110.64 8.71 110.64 8.97L110.64 8.97L110.64 8.97Q110.64 9.38 110.63 9.99L110.63 9.99L110.63 9.99Q110.61 10.60 110.61 10.99L110.61 10.99L110.61 11.55L110.61 11.55Q110.61 12.56 110.95 12.66L110.95 12.66L110.95 12.66Q111.30 12.77 111.55 12.77L111.55 12.77L111.55 12.77Q112.60 12.77 113.39 12.67L113.39 12.67L113.39 12.67Q114.18 12.57 114.58 12.42L114.58 12.42L114.58 12.42Q114.98 12.28 115.25 12.10L115.25 12.10L115.25 12.10Q115.51 11.93 115.59 11.78L115.59 11.78L115.59 11.78Q115.67 11.63 115.74 11.54L115.74 11.54L115.74 11.54Q115.82 11.44 115.91 11.44L115.91 11.44L115.91 11.44Q116.07 11.44 116.07 11.68L116.07 11.68L116.07 11.68Q116.07 12.28 115.47 12.89L115.47 12.89L115.47 12.89Q114.87 13.51 114.42 13.51L114.42 13.51L114.42 13.51Q113.41 13.51 112.15 13.44L112.15 13.44L112.15 13.44Q110.88 13.37 110.57 13.37L110.57 13.37L110.57 13.37Q110.18 13.37 109.59 13.43L109.59 13.43L109.59 13.43Q109.00 13.50 108.67 13.50L108.67 13.50L108.67 13.50Q108.37 13.50 108.37 13.36L108.37 13.36L108.37 13.36Q108.37 13.23 108.37 13.19L108.37 13.19L108.37 13.19Q108.37 13.15 108.42 13.12L108.42 13.12L108.42 13.12Q108.46 13.09 108.51 13.08L108.51 13.08L108.51 13.08Q108.56 13.08 108.69 13.03L108.69 13.03L108.69 13.03Q108.82 12.99 108.98 12.92L108.98 12.92L108.98 12.92Q109.31 12.75 109.42 12.26L109.42 12.26L109.42 12.26Q109.52 11.77 109.52 10.21L109.52 10.21L109.52 8.47L109.52 8.47Q109.52 8.09 109.54 7.29L109.54 7.29L109.54 7.29Q109.56 6.50 109.56 6.05L109.56 6.05L109.56 6.05Q109.56 5.67 109.54 4.77L109.54 4.77L109.54 4.77Q109.52 4.37 109.19 4.14L109.19 4.14L109.19 4.14Q108.85 3.92 108.40 3.91L108.40 3.91L108.40 3.91Q108.18 3.91 108.18 3.65ZM123.63 3.71L123.63 3.71L123.63 3.71Q123.63 3.46 124.01 3.46L124.01 3.46L124.01 3.46Q124.07 3.46 124.19 3.47L124.19 3.47L124.19 3.47Q124.32 3.49 124.39 3.49L124.39 3.49L124.39 3.49Q124.53 3.49 124.91 3.51L124.91 3.51L124.91 3.51Q125.30 3.54 125.61 3.54L125.61 3.54L125.61 3.54Q126.04 3.54 126.53 3.51L126.53 3.51L126.53 3.51Q127.02 3.49 127.08 3.49L127.08 3.49L127.08 3.49Q127.32 3.49 127.32 3.63L127.32 3.63L127.32 3.63Q127.32 3.82 127.15 3.88L127.15 3.88L127.15 3.88Q126.98 3.95 126.78 3.97L126.78 3.97L126.78 3.97Q126.57 3.99 126.39 4.28L126.39 4.28L126.39 4.28Q126.20 4.56 126.17 5.14L126.17 5.14L126.17 5.14Q126.14 5.68 126.10 8.19L126.10 8.19L126.10 8.19Q126.06 10.70 126.06 10.99L126.06 10.99L126.06 11.55L126.06 11.55Q126.06 12.56 126.39 12.66L126.39 12.66L126.39 12.66Q126.74 12.77 126.99 12.77L126.99 12.77L126.99 12.77Q128.04 12.77 128.84 12.67L128.84 12.67L128.84 12.67Q129.63 12.57 130.03 12.42L130.03 12.42L130.03 12.42Q130.42 12.28 130.69 12.10L130.69 12.10L130.69 12.10Q130.96 11.93 131.03 11.78L131.03 11.78L131.03 11.78Q131.11 11.63 131.19 11.54L131.19 11.54L131.19 11.54Q131.26 11.44 131.35 11.44L131.35 11.44L131.35 11.44Q131.52 11.44 131.52 11.68L131.52 11.68L131.52 11.68Q131.52 12.28 130.91 12.89L130.91 12.89L130.91 12.89Q130.31 13.51 129.86 13.51L129.86 13.51L129.86 13.51Q128.86 13.51 127.59 13.44L127.59 13.44L127.59 13.44Q126.32 13.37 126.01 13.37L126.01 13.37L126.01 13.37Q125.62 13.37 125.11 13.43L125.11 13.43L125.11 13.43Q124.60 13.48 124.26 13.48L124.26 13.48L124.26 13.48Q123.86 13.48 123.86 13.31L123.86 13.31L123.86 13.31Q123.86 13.22 123.94 13.15L123.94 13.15L123.94 13.15Q124.01 13.09 124.08 13.09L124.08 13.09L124.08 13.09Q124.29 13.09 124.49 12.95L124.49 12.95L124.49 12.95Q124.74 12.75 124.85 12.23L124.85 12.23L124.85 12.23Q124.96 11.70 124.96 10.21L124.96 10.21L124.96 8.47L124.96 8.47Q124.96 8.09 124.98 7.29L124.98 7.29L124.98 7.29Q125.01 6.50 125.01 6.05L125.01 6.05L125.01 6.05Q125.01 5.67 124.98 4.77L124.98 4.77L124.98 4.77Q124.96 4.37 124.63 4.14L124.63 4.14L124.63 4.14Q124.29 3.92 123.84 3.91L123.84 3.91L123.84 3.91Q123.70 3.91 123.67 3.86L123.67 3.86L123.67 3.86Q123.63 3.81 123.63 3.71ZM139.08 3.71L139.08 3.71L139.08 3.71Q139.08 3.46 139.45 3.46L139.45 3.46L139.45 3.46Q139.51 3.46 139.64 3.47L139.64 3.47L139.64 3.47Q139.76 3.49 139.83 3.49L139.83 3.49L139.83 3.49Q139.97 3.49 140.36 3.51L140.36 3.51L140.36 3.51Q140.74 3.54 141.05 3.54L141.05 3.54L141.05 3.54Q141.48 3.54 141.97 3.51L141.97 3.51L141.97 3.51Q142.46 3.49 142.52 3.49L142.52 3.49L142.52 3.49Q142.76 3.49 142.76 3.63L142.76 3.63L142.76 3.63Q142.76 3.82 142.59 3.88L142.59 3.88L142.59 3.88Q142.42 3.95 142.22 3.97L142.22 3.97L142.22 3.97Q142.02 3.99 141.83 4.28L141.83 4.28L141.83 4.28Q141.64 4.56 141.61 5.14L141.61 5.14L141.61 5.14Q141.58 5.68 141.54 8.19L141.54 8.19L141.54 8.19Q141.50 10.70 141.50 10.99L141.50 10.99L141.50 11.55L141.50 11.55Q141.50 12.56 141.83 12.66L141.83 12.66L141.83 12.66Q142.18 12.77 142.44 12.77L142.44 12.77L142.44 12.77Q143.49 12.77 144.28 12.67L144.28 12.67L144.28 12.67Q145.07 12.57 145.47 12.42L145.47 12.42L145.47 12.42Q145.87 12.28 146.13 12.10L146.13 12.10L146.13 12.10Q146.40 11.93 146.47 11.78L146.47 11.78L146.47 11.78Q146.55 11.63 146.63 11.54L146.63 11.54L146.63 11.54Q146.71 11.44 146.79 11.44L146.79 11.44L146.79 11.44Q146.96 11.44 146.96 11.68L146.96 11.68L146.96 11.68Q146.96 12.28 146.36 12.89L146.36 12.89L146.36 12.89Q145.75 13.51 145.31 13.51L145.31 13.51L145.31 13.51Q144.30 13.51 143.03 13.44L143.03 13.44L143.03 13.44Q141.76 13.37 141.46 13.37L141.46 13.37L141.46 13.37Q141.06 13.37 140.55 13.43L140.55 13.43L140.55 13.43Q140.04 13.48 139.71 13.48L139.71 13.48L139.71 13.48Q139.30 13.48 139.30 13.31L139.30 13.31L139.30 13.31Q139.30 13.22 139.38 13.15L139.38 13.15L139.38 13.15Q139.45 13.09 139.52 13.09L139.52 13.09L139.52 13.09Q139.73 13.09 139.93 12.95L139.93 12.95L139.93 12.95Q140.18 12.75 140.29 12.23L140.29 12.23L140.29 12.23Q140.41 11.70 140.41 10.21L140.41 10.21L140.41 8.47L140.41 8.47Q140.41 8.09 140.43 7.29L140.43 7.29L140.43 7.29Q140.45 6.50 140.45 6.05L140.45 6.05L140.45 6.05Q140.45 5.67 140.42 4.77L140.42 4.77L140.42 4.77Q140.41 4.37 140.07 4.14L140.07 4.14L140.07 4.14Q139.73 3.92 139.29 3.91L139.29 3.91L139.29 3.91Q139.15 3.91 139.11 3.86L139.11 3.86L139.11 3.86Q139.08 3.81 139.08 3.71ZM154.52 3.65L154.52 3.65L154.52 3.65Q154.52 3.46 154.91 3.46L154.91 3.46L154.91 3.46Q154.97 3.46 155.09 3.47L155.09 3.47L155.09 3.47Q155.22 3.49 155.29 3.49L155.29 3.49L155.29 3.49Q155.33 3.49 156.60 3.52L156.60 3.52L156.60 3.52Q157.88 3.56 158.70 3.56L158.70 3.56L158.70 3.56Q159.00 3.56 160.15 3.53L160.15 3.53L160.15 3.53Q161.31 3.50 161.50 3.50L161.50 3.50L161.50 3.50Q161.77 3.50 161.77 3.82L161.77 3.82L161.77 3.82Q161.77 3.91 161.69 4.38L161.69 4.38L161.69 4.38Q161.60 4.84 161.60 5.25L161.60 5.25L161.60 5.25Q161.60 5.38 161.53 5.47L161.53 5.47L161.53 5.47Q161.46 5.56 161.38 5.56L161.38 5.56L161.38 5.56Q161.17 5.56 161.17 5.26L161.17 5.26L161.17 5.26Q161.17 4.89 160.93 4.58L160.93 4.58L160.93 4.58Q160.69 4.27 160.34 4.26L160.34 4.26L160.34 4.26Q159.08 4.16 158.41 4.16L158.41 4.16L158.05 4.16L158.05 4.16Q157.32 4.16 157.20 4.26L157.20 4.26L157.20 4.26Q157.08 4.37 157.05 5.01L157.05 5.01L157.05 5.01Q157.00 6.02 157.00 7.35L157.00 7.35L157.00 7.35Q157.00 8.05 157.26 8.06L157.26 8.06L157.61 8.06L158.20 8.06L158.63 8.06L158.63 8.06Q159.47 8.06 159.75 8.01L159.75 8.01L159.75 8.01Q160.03 7.95 160.26 7.80L160.26 7.80L160.26 7.80Q160.52 7.62 160.58 7.28L160.58 7.28L160.58 7.28Q160.62 7.04 160.78 7.04L160.78 7.04L160.78 7.04Q160.90 7.04 160.93 7.08L160.93 7.08L160.93 7.08Q160.96 7.13 160.96 7.27L160.96 7.27L160.96 7.27Q160.96 7.36 160.90 7.91L160.90 7.91L160.90 7.91Q160.85 8.46 160.85 8.74L160.85 8.74L160.85 8.74Q160.85 9.00 160.87 9.24L160.87 9.24L160.87 9.24Q160.89 9.48 160.89 9.59L160.89 9.59L160.89 9.59Q160.89 9.94 160.79 9.94L160.79 9.94L160.79 9.94Q160.58 9.94 160.48 9.60L160.48 9.60L160.48 9.60Q160.29 9.02 160.13 8.92L160.13 8.92L160.13 8.92Q159.84 8.72 158.79 8.72L158.79 8.72L158.79 8.72Q158.37 8.72 158.11 8.72L158.11 8.72L158.11 8.72Q157.85 8.72 157.77 8.71L157.77 8.71L157.77 8.71Q157.70 8.71 157.65 8.71L157.65 8.71L157.65 8.71Q157.60 8.71 157.56 8.71L157.56 8.71L157.56 8.71Q156.98 8.71 156.98 8.97L156.98 8.97L156.98 8.97Q156.98 9.38 156.97 9.99L156.97 9.99L156.97 9.99Q156.95 10.60 156.95 10.99L156.95 10.99L156.95 11.55L156.95 11.55Q156.95 12.56 157.29 12.66L157.29 12.66L157.29 12.66Q157.64 12.77 157.89 12.77L157.89 12.77L157.89 12.77Q158.94 12.77 159.73 12.67L159.73 12.67L159.73 12.67Q160.52 12.57 160.92 12.42L160.92 12.42L160.92 12.42Q161.32 12.28 161.59 12.10L161.59 12.10L161.59 12.10Q161.85 11.93 161.93 11.78L161.93 11.78L161.93 11.78Q162.01 11.63 162.09 11.54L162.09 11.54L162.09 11.54Q162.16 11.44 162.25 11.44L162.25 11.44L162.25 11.44Q162.41 11.44 162.41 11.68L162.41 11.68L162.41 11.68Q162.41 12.28 161.81 12.89L161.81 12.89L161.81 12.89Q161.21 13.51 160.76 13.51L160.76 13.51L160.76 13.51Q159.75 13.51 158.49 13.44L158.49 13.44L158.49 13.44Q157.22 13.37 156.91 13.37L156.91 13.37L156.91 13.37Q156.52 13.37 155.93 13.43L155.93 13.43L155.93 13.43Q155.34 13.50 155.01 13.50L155.01 13.50L155.01 13.50Q154.71 13.50 154.71 13.36L154.71 13.36L154.71 13.36Q154.71 13.23 154.71 13.19L154.71 13.19L154.71 13.19Q154.71 13.15 154.76 13.12L154.76 13.12L154.76 13.12Q154.80 13.09 154.85 13.08L154.85 13.08L154.85 13.08Q154.90 13.08 155.03 13.03L155.03 13.03L155.03 13.03Q155.16 12.99 155.32 12.92L155.32 12.92L155.32 12.92Q155.65 12.75 155.76 12.26L155.76 12.26L155.76 12.26Q155.86 11.77 155.86 10.21L155.86 10.21L155.86 8.47L155.86 8.47Q155.86 8.09 155.88 7.29L155.88 7.29L155.88 7.29Q155.90 6.50 155.90 6.05L155.90 6.05L155.90 6.05Q155.90 5.67 155.88 4.77L155.88 4.77L155.88 4.77Q155.86 4.37 155.53 4.14L155.53 4.14L155.53 4.14Q155.19 3.92 154.74 3.91L154.74 3.91L154.74 3.91Q154.52 3.91 154.52 3.65Z"></path></g></svg>